<?xml version="1.0" encoding="utf-8"?>
<!-- Generator: Adobe Illustrator 21.1.0, SVG Export Plug-In . SVG Version: 6.00 Build 0)  -->
<svg version="1.1" id="Layer_1" xmlns="http://www.w3.org/2000/svg" xmlns:xlink="http://www.w3.org/1999/xlink" x="0px" y="0px"
	 viewBox="0 0 100 100" style="enable-background:new 0 0 100 100;" xml:space="preserve">
<style type="text/css">
	.st0{fill:#231F20;}
</style>
<g>
	<path class="st0" d="M13,37.5c0-0.2,0.1-0.3,0.1-0.4c0-0.1,0-0.1,0-0.1l0-0.2c0-0.2-0.1-0.3-0.1-0.3c-0.1-0.1-0.1-0.1-0.2-0.2
		c-0.1,0-0.1-0.1-0.2-0.1c-0.1,0-0.2-0.1-0.3-0.2c-0.3-0.1-0.5-0.2-0.6-0.2c-0.1,0-0.3,0-0.4,0c-0.1,0.1-0.2,0.2-0.3,0.3
		c0,0.1,0,0.3,0,0.4c0.1,0.1,0.2,0.2,0.3,0.3c0.1,0,0.3,0.1,0.5,0.2c0,0,0.1,0,0.1,0c0,0,0,0,0,0.1l-0.4,1.5c-1.4-0.5-2.6-0.8-3.4-1
		l0-0.1c0-0.1,0-0.3,0-0.4C8,37,7.9,37,7.7,36.9c-0.1,0-0.3,0-0.4,0c-0.1,0.1-0.2,0.2-0.3,0.3l-0.1,0.4c0,0-0.1,0.1-0.1,0.2
		l-0.2,0.7c0,0.1,0,0.3,0,0.4c0.1,0.1,0.2,0.2,0.3,0.3c0.1,0,0.3,0,0.4,0c0.1-0.1,0.2-0.2,0.3-0.3l0.1-0.2c0.8,0.2,2,0.6,3.4,1
		L11.1,40l0,0c0,0.1,0,0.3,0,0.4c0.1,0.1,0.2,0.2,0.3,0.3c0.1,0,0.1,0,0.2,0c0.1,0,0.2,0,0.2-0.1c0.1-0.1,0.2-0.2,0.3-0.3l0.6-1.8
		C12.8,38.1,12.9,37.8,13,37.5z"/>
	<path class="st0" d="M16.4,29.2c-0.1-0.3-0.3-0.6-0.7-0.8c-0.1,0-0.3-0.2-0.7-0.4c-0.1-0.1-0.3-0.1-0.4,0c-0.1,0-0.3,0.1-0.3,0.3
		c-0.1,0.1-0.1,0.3,0,0.4c0,0.1,0.1,0.3,0.3,0.3c0.3,0.2,0.5,0.3,0.6,0.3c0.1,0.1,0.2,0.1,0.2,0.1c0,0,0,0,0,0.1
		c-0.1,0.1-0.2,0.3-0.3,0.5l-0.3,0.4c-0.1,0.1-0.2,0.3-0.3,0.4c-0.1,0.1-0.1,0.2-0.1,0.2c-0.1-0.1-0.3-0.1-0.5-0.2
		c-0.3-0.1-0.6-0.2-0.7-0.3c0.1-0.2,0.3-0.5,0.5-0.9c0.1,0,0.2,0,0.3-0.1c0.1-0.1,0.2-0.2,0.3-0.3c0-0.1,0-0.3,0-0.4
		c-0.1-0.1-0.2-0.2-0.3-0.3c0,0-0.1,0-0.4-0.1c-0.2-0.1-0.3-0.1-0.4-0.1c-0.1,0-0.2,0-0.4,0c0.1,0,0.1-0.1,0.2-0.2l0,0
		c0.1-0.2,0.2-0.4,0.1-0.6c0-0.1-0.1-0.1-0.1-0.2l-0.1-0.1c0,0-0.1,0-0.1-0.1c-0.1,0-0.2-0.1-0.3-0.1l-0.5-0.2c-0.1,0-0.3,0-0.4,0.1
		c-0.1,0.1-0.2,0.2-0.3,0.3c-0.1,0.3-0.3,0.8-0.6,1.4c-0.1,0.3-0.3,0.5-0.3,0.7L10,29.3c-0.1,0.1-0.1,0.2-0.1,0.3
		c-0.1,0.1-0.1,0.3-0.2,0.4c0,0.1,0,0.2,0,0.4c0.1,0.1,0.2,0.3,0.3,0.3c0.1,0,0.3,0,0.4,0c0.1-0.1,0.2-0.2,0.3-0.3c0,0,0,0,0,0
		c0.2,0.1,0.3,0.1,0.4,0.2l0.4,0.1c0.2,0.1,0.3,0.1,0.4,0.1c0.1,0,0.2,0.1,0.4,0.2c0.2,0.1,0.4,0.2,0.5,0.2c0.2,0.1,0.4,0.2,0.8,0.3
		c0.2,0.1,0.3,0.1,0.4,0.2c-0.1,0.2-0.1,0.3-0.2,0.4c-0.1,0.1-0.1,0.3,0,0.4c0,0.1,0.1,0.2,0.3,0.3c0.1,0,0.2,0.1,0.2,0.1
		c0.1,0,0.1,0,0.2,0c0.1,0,0.2-0.1,0.3-0.3c0-0.1,0.1-0.3,0.3-0.6c0.1-0.3,0.2-0.4,0.3-0.6c0,0,0.1-0.1,0.1-0.2
		c0.1-0.1,0.1-0.2,0.3-0.3c0.1-0.1,0.2-0.3,0.3-0.4c0.2-0.2,0.3-0.4,0.4-0.6C16.4,29.6,16.5,29.4,16.4,29.2z M12.5,29
		c0,0.1,0.1,0.1,0.1,0.1c-0.2,0.3-0.3,0.6-0.4,0.8l-0.8-0.3c-0.1,0-0.2-0.1-0.3-0.1c0.1-0.1,0.1-0.3,0.2-0.4
		c0.2-0.4,0.4-0.8,0.5-1.1c0,0,0,0,0,0l0.1,0c0.1,0.1,0.1,0.2,0.2,0.2c0.1,0.1,0.3,0.1,0.4,0c0,0,0,0,0.1,0
		c-0.1,0.1-0.2,0.2-0.2,0.3C12.4,28.7,12.4,28.8,12.5,29z M13,28.4C13,28.4,13,28.4,13,28.4C13,28.4,13,28.4,13,28.4L13,28.4z
		 M13,28.4L13,28.4C13,28.4,13,28.4,13,28.4C13,28.4,13,28.4,13,28.4z"/>
	<path class="st0" d="M23.2,19.5c0-0.1,0-0.3-0.1-0.4c-0.1-0.1-0.2-0.2-0.4-0.2c-0.1,0-0.3,0-0.4,0.1c-0.1,0.1-0.2,0.1-0.3,0.2
		l-0.8-0.8c0.1-0.1,0.2-0.3,0.3-0.3c0.1-0.1,0.1-0.2,0.2-0.3c0.1-0.1,0.2-0.3,0.2-0.4c0.5-1,0.2-1.6-0.1-2c-0.3-0.4-0.7-0.6-1-0.6
		c-0.3,0-0.6,0.1-1,0.3c-0.3,0.2-0.5,0.4-0.8,0.7c-0.5,0.4-0.9,0.9-1.2,1.4c-0.1,0.1-0.1,0.3-0.1,0.4c0,0.1,0.1,0.3,0.2,0.3
		C18,18,18.1,18,18.3,18c0.1,0,0.3-0.1,0.3-0.2c0,0,0.1-0.1,0.1-0.2c0,0,0,0,0,0c0.1,0.1,0.2,0.2,0.4,0.3l2.2,2.1l-0.2,0.2
		C21,20.3,21,20.5,21,20.6c0,0.1,0.1,0.3,0.2,0.4c0.1,0.1,0.2,0.1,0.4,0.1c0,0,0,0,0,0c0.1,0,0.3-0.1,0.4-0.2
		c0.1-0.1,0.2-0.2,0.3-0.4c0.2-0.2,0.3-0.3,0.4-0.4c0.1-0.1,0.2-0.2,0.3-0.3C23.1,19.8,23.2,19.6,23.2,19.5z M20.7,15.9
		c0,0,0.1,0,0.3,0.2c0.1,0.1,0.2,0.3,0,0.8c-0.1,0.1-0.1,0.2-0.2,0.3c-0.1,0.1-0.1,0.2-0.2,0.3c0,0.1-0.1,0.1-0.2,0.2l-0.3-0.3
		c-0.1-0.1-0.2-0.1-0.3-0.3c-0.1-0.1-0.3-0.3-0.4-0.4c0,0,0,0,0,0c0.1-0.1,0.2-0.2,0.3-0.3c0.2-0.2,0.5-0.4,0.7-0.5
		C20.5,15.9,20.6,15.9,20.7,15.9z"/>
	<path class="st0" d="M30.4,11.9c0-0.1-0.2-0.3-0.4-0.6c-0.1-0.1-0.2-0.2-0.3-0.2c-0.1,0-0.3,0-0.4,0.1c-0.1,0.1-0.2,0.2-0.2,0.3
		c0,0.1,0,0.3,0.1,0.4c0.2,0.3,0.3,0.5,0.4,0.5c0.1,0.1,0.1,0.2,0.1,0.2c0,0,0,0-0.1,0.1c-0.1,0.1-0.3,0.2-0.5,0.3l-0.4,0.2
		c-0.2,0.1-0.3,0.1-0.4,0.2c-0.1,0-0.2,0.1-0.2,0.1c-0.1-0.1-0.2-0.2-0.3-0.4c-0.2-0.3-0.4-0.5-0.5-0.6c0.2-0.1,0.5-0.3,0.9-0.6
		c0.1,0,0.2,0.1,0.3,0.1h0c0.1,0,0.3-0.1,0.4-0.2c0.1-0.1,0.2-0.2,0.2-0.4c0-0.1-0.1-0.3-0.2-0.4c0,0-0.1-0.1-0.3-0.3
		c-0.1-0.1-0.2-0.2-0.3-0.3c-0.1-0.1-0.2-0.1-0.3-0.1c0.1,0,0.2,0,0.2-0.1l0,0c0.2-0.1,0.3-0.3,0.3-0.6c0-0.1,0-0.1,0-0.2l-0.1-0.1
		c0,0-0.1-0.1-0.1-0.1c-0.1-0.1-0.1-0.1-0.2-0.3l-0.4-0.4c-0.1-0.1-0.3-0.1-0.4-0.1c0,0,0,0,0,0c-0.1,0-0.3,0.1-0.4,0.1
		c-0.2,0.2-0.6,0.6-1.2,1l-0.1,0.1c-0.2,0.2-0.4,0.3-0.5,0.4l-0.1,0c-0.1,0.1-0.2,0.1-0.3,0.2c-0.1,0.1-0.2,0.2-0.4,0.3
		c-0.1,0.1-0.1,0.2-0.1,0.3c0,0.2,0,0.3,0.1,0.4c0.1,0.1,0.2,0.1,0.3,0.2c0.1,0,0.3,0,0.4-0.1c0,0,0,0,0,0c0.1,0.2,0.2,0.3,0.3,0.4
		l0.5,0.6c0.1,0.1,0.2,0.2,0.3,0.3c0.2,0.2,0.3,0.4,0.3,0.4c0.1,0.1,0.3,0.3,0.5,0.6c0.1,0.1,0.2,0.2,0.3,0.3
		c-0.2,0.1-0.3,0.2-0.3,0.3c-0.1,0.1-0.2,0.2-0.2,0.4c0,0.1,0,0.3,0.1,0.4c0.1,0.1,0.2,0.2,0.4,0.2c0,0,0,0,0.1,0
		c0.1,0,0.2,0,0.3-0.1c0.1-0.1,0.3-0.2,0.6-0.4c0.2-0.2,0.4-0.3,0.5-0.4c0,0,0.1-0.1,0.2-0.1c0.1-0.1,0.2-0.1,0.4-0.2
		c0.2-0.1,0.3-0.1,0.4-0.2c0.3-0.1,0.4-0.3,0.6-0.4c0.3-0.2,0.4-0.4,0.5-0.6C30.7,12.7,30.7,12.3,30.4,11.9z M27.7,10.4
		c-0.1,0-0.3,0.1-0.4,0.2c-0.1,0.1-0.1,0.2-0.1,0.4c0,0.1,0,0.1,0.1,0.2c-0.3,0.2-0.5,0.4-0.7,0.5L26,11.1c-0.1-0.1-0.1-0.2-0.2-0.3
		c0.1-0.1,0.2-0.2,0.4-0.3c0.4-0.3,0.7-0.5,0.9-0.7c0,0,0,0,0,0c0,0,0,0,0,0c0,0.1,0,0.2,0.1,0.3C27.4,10.3,27.5,10.4,27.7,10.4
		C27.6,10.4,27.7,10.4,27.7,10.4C27.7,10.4,27.7,10.4,27.7,10.4z M27.9,10.7C27.9,10.7,27.9,10.7,27.9,10.7
		C27.9,10.7,27.9,10.7,27.9,10.7L27.9,10.7z M27.9,10.7L27.9,10.7C27.9,10.7,27.9,10.7,27.9,10.7C27.9,10.7,27.9,10.7,27.9,10.7z"/>
	<path class="st0" d="M36.8,8.5c-0.1,0-0.3,0-0.4,0l-0.3,0.1c-0.1-0.2-0.2-0.5-0.3-0.8c-0.4-0.9-0.5-1.1-0.5-1.2
		c-0.1-0.1-0.2-0.4-0.5-0.8c-0.1-0.1-0.1-0.2-0.2-0.3c0.3-0.1,0.5-0.2,0.7-0.3c0.1,0,0.1,0,0.2-0.1c0.1,0.1,0.2,0.2,0.3,0.3
		c0.1,0,0.3,0,0.4,0c0.1-0.1,0.2-0.2,0.3-0.3c0-0.1,0-0.3,0-0.4l-0.1-0.3c0,0,0-0.1-0.1-0.1L36,4.2c-0.1-0.1-0.2-0.1-0.4-0.1
		c-0.1,0-0.2,0-0.3,0c-0.1,0-0.3,0.1-0.5,0.1c-0.3,0.1-0.7,0.3-1.2,0.5c-0.5,0.2-0.9,0.4-1.2,0.6c-0.2,0.1-0.3,0.2-0.4,0.2
		c-0.1,0-0.2,0.1-0.2,0.2c-0.1,0.1-0.2,0.2-0.2,0.4c0,0.2,0,0.4,0.1,0.6c0,0,0.1,0.1,0.1,0.2L32,7c0.1,0.1,0.2,0.2,0.3,0.3
		c0.1,0.1,0.3,0,0.4,0C32.8,7.2,32.9,7.1,33,7c0-0.1,0-0.3,0-0.4c0,0,0-0.1-0.1-0.2c0,0,0,0,0,0c0,0,0.1-0.1,0.1-0.1
		c0.2-0.1,0.4-0.2,0.6-0.3c0.1,0.1,0.1,0.3,0.2,0.4c0.2,0.4,0.4,0.7,0.5,0.8c0,0,0.1,0.2,0.5,1.1c0.2,0.3,0.3,0.6,0.4,0.8
		c-0.1,0.1-0.3,0.2-0.4,0.2c-0.1,0.1-0.2,0.2-0.2,0.3c0,0.1,0,0.3,0.1,0.4c0.1,0.1,0.2,0.2,0.3,0.2c0.1,0,0.1,0,0.2,0
		c0.1,0,0.2,0,0.3-0.1c0.3-0.2,0.8-0.4,1.6-0.8c0.1-0.1,0.2-0.2,0.3-0.3c0-0.1,0-0.3,0-0.4C37,8.7,36.9,8.6,36.8,8.5z"/>
	<path class="st0" d="M43.7,7.1c0.2,0,0.3-0.1,0.4-0.2c0.1-0.1,0.1-0.2,0.1-0.4c0-0.2-0.1-0.3-0.2-0.4c-0.1-0.1-0.2-0.1-0.4-0.1
		c-0.1,0-0.2,0-0.4,0.1c0,0,0-0.1,0-0.1c0-0.1-0.1-0.3-0.2-0.5l-0.2-0.4c-0.1-0.2-0.2-0.5-0.2-0.8c-0.1-0.3-0.1-0.6-0.2-1
		c0-0.2-0.1-0.3-0.1-0.5c0.1,0,0.3-0.1,0.4-0.1c0.1,0,0.3-0.1,0.3-0.2c0.1-0.1,0.1-0.3,0.1-0.4c0-0.1-0.1-0.3-0.2-0.3
		c-0.1-0.1-0.3-0.1-0.4-0.1c-0.2,0-0.4,0.1-0.8,0.2C41.2,2,40.9,2,40.7,2.1c-0.1,0-0.3,0.1-0.3,0.2c-0.1,0.1-0.1,0.3-0.1,0.4
		c0,0.1,0.1,0.3,0.2,0.3c0.1,0.1,0.3,0.1,0.4,0.1c0.1,0,0.2,0,0.3-0.1c0,0.1,0.1,0.3,0.1,0.5c0.1,0.4,0.2,0.8,0.2,1.1
		c0.1,0.3,0.2,0.6,0.3,0.9L42,5.9c0.1,0.2,0.1,0.4,0.2,0.5c0,0,0,0,0,0c-0.3,0.1-0.5,0.1-0.6,0.1l0,0c-0.1,0-0.2,0.1-0.3,0.2
		c-0.1,0.1-0.1,0.3-0.1,0.4c0,0.1,0.1,0.2,0.2,0.3c0.1,0.1,0.2,0.1,0.3,0.1c0,0,0.1,0,0.1,0l1-0.3C43.2,7.2,43.5,7.2,43.7,7.1z"/>
	<path class="st0" d="M47.3,2.1c0,0.1,0.1,0.3,0.2,0.4c0.1,0.1,0.2,0.1,0.4,0.1c0.1,0,0.3-0.1,0.4-0.2c0.1-0.1,0.1-0.2,0.1-0.4
		c0,0,0-0.1,0-0.2c0,0,0,0,0,0c0,0,0.1,0,0.2,0c0.2,0,0.4,0,0.7,0c0,0.1,0,0.3,0.1,0.5c0.1,0.5,0.1,0.7,0.1,0.9c0,0,0,0.3,0.1,1.2
		c0,0.4,0,0.7,0,0.9c-0.2,0-0.3,0-0.5,0.1c-0.1,0-0.2,0.1-0.3,0.2c-0.1,0.1-0.1,0.3-0.1,0.4c0,0.1,0.1,0.2,0.2,0.3
		c0.1,0.1,0.2,0.1,0.3,0.1c0,0,0.1,0,0.1,0c0.3,0,0.9-0.1,1.7-0.1c0.1,0,0.3-0.1,0.4-0.2c0.1-0.1,0.1-0.2,0.1-0.4
		c0-0.1-0.1-0.3-0.2-0.4c-0.1-0.1-0.2-0.1-0.4-0.1l-0.3,0c0-0.2,0-0.5,0-0.9c0-1-0.1-1.2-0.1-1.3c0-0.1-0.1-0.5-0.1-0.9
		c0-0.1,0-0.2,0-0.4c0.3,0,0.5,0,0.7,0c0.1,0,0.1,0,0.2,0c0,0.1,0.1,0.3,0.2,0.4c0.1,0.1,0.2,0.1,0.4,0.1c0.2,0,0.3-0.1,0.4-0.2
		c0.1-0.1,0.1-0.2,0.1-0.4l0-0.3c0-0.1,0-0.1,0-0.2L52.1,1c-0.1-0.1-0.2-0.2-0.3-0.3c-0.1,0-0.2-0.1-0.3-0.1c-0.1,0-0.3,0-0.5,0
		c-0.4,0-0.8,0-1.3,0c-0.5,0-0.9,0-1.3,0.1c-0.2,0-0.4,0-0.5,0.1c-0.1,0-0.2,0-0.2,0.1c-0.1,0.1-0.2,0.1-0.3,0.3
		c-0.1,0.2-0.1,0.4-0.1,0.6C47.3,1.8,47.3,1.8,47.3,2.1L47.3,2.1z"/>
	<path class="st0" d="M65.2,8.2c0.3-0.1,0.5-0.2,0.7-0.4c0.2-0.2,0.3-0.4,0.4-0.7c0.1-0.4,0.1-1-0.3-1.5c0.1-0.1,0.2-0.2,0.3-0.3
		c0.3-0.3,0.4-0.7,0.4-1.1c0-0.4-0.2-0.8-0.5-1.1c-0.1-0.1-0.2-0.2-0.4-0.3c-0.2-0.1-0.3-0.1-0.4-0.2c-0.1,0-0.2-0.1-0.4-0.1
		c-0.1,0-0.3-0.1-0.3-0.1l-0.3-0.1c-0.1-0.1-0.1-0.1-0.2-0.1c-0.1,0-0.2,0-0.2,0C63.7,2.1,63.6,2,63.4,2c-0.2,0-0.3,0-0.4,0.2
		c-0.1,0.1-0.1,0.2-0.1,0.3c0,0.2,0.1,0.3,0.2,0.4c0.1,0.1,0.2,0.1,0.3,0.1c0,0.1,0,0.1,0,0.2l-0.2,0.7c0,0.1-0.1,0.2-0.2,0.6
		c-0.1,0.3-0.2,0.5-0.2,0.6l-0.2,0.6c-0.1,0.2-0.2,0.4-0.2,0.6c0,0.1-0.1,0.2-0.1,0.2c0,0,0,0,0,0c-0.1-0.1-0.3-0.1-0.4,0
		c-0.1,0-0.2,0.1-0.3,0.3c-0.1,0.1-0.1,0.3,0,0.4c0,0.1,0.1,0.2,0.3,0.3c0.5,0.2,1.1,0.4,1.7,0.6c0.5,0.1,1,0.2,1.3,0.2
		C64.8,8.2,65,8.2,65.2,8.2z M65.5,4.6c-0.1,0.1-0.3,0.1-0.4,0.2c-0.1,0-0.1,0-0.2,0c-0.2-0.1-0.5-0.2-0.8-0.3
		c0.1-0.3,0.2-0.6,0.3-1.1l0,0c0.1,0,0.2,0.1,0.4,0.1c0.2,0.1,0.4,0.1,0.5,0.2c0.1,0,0.1,0.1,0.2,0.1c0.1,0.1,0.2,0.2,0.2,0.4
		C65.6,4.4,65.6,4.5,65.5,4.6z M63.7,5.5l0.2,0.1c0.1,0,0.2,0.1,0.3,0.1c0.1,0,0.2,0.1,0.2,0.1c0.2,0.1,0.3,0.1,0.4,0.2
		c0.5,0.3,0.5,0.6,0.4,0.8c0,0.1-0.1,0.1-0.1,0.2c-0.1,0.1-0.1,0.1-0.2,0.1c-0.2,0-0.6,0.1-1.3-0.1c-0.1,0-0.3-0.1-0.4-0.1
		C63.4,6.5,63.5,6,63.7,5.5z"/>
	<path class="st0" d="M70.5,11.1c0.2,0,0.3-0.1,0.4-0.2c0.1-0.1,0.1-0.2,0.1-0.4c0-0.2-0.1-0.3-0.2-0.4c0,0-0.1-0.1-0.3-0.2
		c0.2-0.1,0.4-0.2,0.6-0.3c0.3,0.2,0.7,0.5,1.3,0.9c0,0.2-0.1,0.4-0.2,0.6C72.1,11,72,11,71.9,10.9l0,0c-0.1-0.1-0.2-0.1-0.4-0.1
		c-0.2,0-0.3,0.1-0.4,0.2c-0.1,0.1-0.1,0.2-0.1,0.4c0,0.2,0.1,0.3,0.2,0.4c0.1,0.1,0.4,0.3,0.7,0.5c0.3,0.2,0.5,0.3,0.6,0.4
		c0.1,0.1,0.2,0.1,0.3,0.1c0,0,0.1,0,0.1,0c0.1,0,0.2-0.1,0.3-0.2c0.1-0.1,0.1-0.3,0.1-0.4c0-0.1-0.1-0.2-0.2-0.3
		c-0.1-0.1-0.2-0.1-0.3-0.2c0-0.1,0.1-0.3,0.1-0.4c0.1-0.2,0.1-0.5,0.2-0.8l0.2-0.7c0-0.2,0.1-0.4,0.2-0.8L74,7.9
		c0-0.2,0.1-0.3,0.1-0.4c0-0.1,0-0.1,0-0.1l0-0.2l0-0.1C74.1,7,74,7,73.9,6.9L74,6.6l-0.2,0.2c-0.1-0.1-0.2-0.1-0.4,0l-0.1,0.1l0,0
		c0,0,0,0-0.1,0.1c0,0-0.1,0.1-0.2,0.1l-0.2,0.2c-0.1,0.1-0.3,0.2-0.5,0.4c-0.3,0.2-0.5,0.4-0.6,0.4c-0.2,0.2-0.6,0.4-1.2,0.8
		c-0.4,0.3-0.8,0.5-1.1,0.7c0,0,0,0,0,0c-0.1-0.1-0.2-0.1-0.4-0.1c-0.1,0-0.3,0.1-0.4,0.1c-0.1,0.1-0.2,0.2-0.2,0.4
		c0,0.1,0,0.2,0.1,0.4c0.1,0.1,0.4,0.3,0.7,0.5c0.4,0.2,0.6,0.4,0.7,0.4C70.2,11.1,70.3,11.1,70.5,11.1z M72,9
		c0.1-0.1,0.3-0.2,0.4-0.3c0.1-0.1,0.2-0.2,0.4-0.3l-0.2,1C72.4,9.3,72.2,9.2,72,9z"/>
	<path class="st0" d="M81.6,15.4c0.1,0.1,0.2,0.2,0.4,0.2c0.1,0,0.3-0.1,0.4-0.2l0.2-0.2c0,0,0.1-0.1,0,0l0.1-0.2
		c0-0.1,0.1-0.3,0-0.4c0-0.1-0.1-0.2-0.1-0.3c-0.1-0.1-0.2-0.2-0.3-0.4c-0.2-0.3-0.5-0.6-0.9-1c-0.4-0.4-0.7-0.7-0.9-0.9
		c-0.2-0.1-0.3-0.2-0.4-0.3c-0.1-0.1-0.1-0.1-0.2-0.1c-0.1-0.1-0.3-0.1-0.4-0.1c-0.2,0-0.4,0.1-0.5,0.3c0,0-0.1,0.1-0.2,0.2
		l-0.1,0.1c-0.1,0.1-0.2,0.2-0.2,0.4c0,0.1,0,0.3,0.2,0.4c0.1,0.1,0.2,0.2,0.4,0.2c0.1,0,0.3-0.1,0.4-0.2c0,0,0.1-0.1,0.1-0.1
		c0,0,0,0,0,0c0,0,0.1,0.1,0.1,0.1c0.1,0.1,0.3,0.3,0.5,0.5c-0.1,0.1-0.2,0.2-0.3,0.3c-0.3,0.3-0.5,0.6-0.6,0.7c0,0-0.2,0.2-0.8,0.8
		c-0.3,0.3-0.5,0.5-0.7,0.6c-0.1-0.1-0.2-0.2-0.4-0.3c-0.1-0.1-0.2-0.1-0.4-0.1c-0.2,0-0.3,0.1-0.4,0.2c-0.1,0.1-0.1,0.2-0.1,0.4
		c0,0.2,0.1,0.3,0.2,0.4c0.2,0.2,0.7,0.6,1.2,1.2c0.1,0.1,0.2,0.2,0.4,0.2c0,0,0,0,0,0c0.1,0,0.3-0.1,0.4-0.2
		c0.1-0.1,0.2-0.2,0.2-0.4c0-0.1-0.1-0.3-0.2-0.4l-0.2-0.2c0.2-0.1,0.4-0.3,0.6-0.6c0.7-0.7,0.9-0.8,0.9-0.9
		c0.1-0.1,0.3-0.3,0.6-0.7c0.1-0.1,0.2-0.2,0.2-0.3c0.2,0.2,0.3,0.4,0.5,0.5c0,0,0.1,0.1,0.1,0.1c-0.1,0.1-0.1,0.2-0.1,0.4
		C81.5,15.2,81.5,15.3,81.6,15.4z"/>
	<path class="st0" d="M82.4,22.7c0,0,0.1,0.1,0.1,0.2c0,0.1,0.1,0.2,0.2,0.4c0.1,0.2,0.1,0.3,0.2,0.4c0.1,0.3,0.2,0.5,0.3,0.6
		c0.2,0.3,0.4,0.4,0.6,0.5c0.1,0,0.2,0.1,0.3,0.1c0.2,0,0.5-0.1,0.7-0.2c0.1,0,0.3-0.2,0.7-0.4c0.1-0.1,0.2-0.2,0.2-0.3
		c0-0.1,0-0.3-0.1-0.4c-0.1-0.1-0.2-0.2-0.3-0.2c-0.1,0-0.3,0-0.4,0.1c-0.3,0.2-0.5,0.3-0.6,0.3c-0.1,0.1-0.2,0.1-0.2,0.1
		c0,0,0,0-0.1-0.1c-0.1-0.1-0.2-0.3-0.3-0.5l-0.2-0.4c-0.1-0.2-0.1-0.3-0.2-0.4c0-0.1-0.1-0.2-0.1-0.2c0.1-0.1,0.3-0.2,0.4-0.3
		c0.3-0.2,0.5-0.4,0.6-0.5c0.1,0.2,0.3,0.5,0.5,0.9c-0.1,0.1-0.1,0.2-0.1,0.3c0,0.1,0,0.3,0.1,0.4c0.1,0.1,0.2,0.2,0.4,0.2
		c0.1,0,0.3,0,0.4-0.1c0,0,0.1-0.1,0.3-0.2c0.1-0.1,0.2-0.2,0.3-0.3c0.1-0.1,0.1-0.2,0.1-0.3c0,0.1,0,0.2,0.1,0.2l0,0
		c0.1,0.2,0.3,0.4,0.5,0.4c0.1,0,0.1,0,0.2,0l0.1-0.1c0,0,0.1-0.1,0.1-0.1c0.1-0.1,0.2-0.1,0.3-0.2l0.4-0.4c0.1-0.1,0.2-0.2,0.1-0.4
		c0-0.1,0-0.3-0.1-0.4C88,21,87.7,20.6,87.4,20c-0.2-0.3-0.3-0.5-0.4-0.6l0,0l0-0.1c0-0.1-0.1-0.2-0.2-0.3c-0.1-0.1-0.2-0.3-0.3-0.4
		c-0.1-0.1-0.2-0.2-0.3-0.2c-0.2,0-0.3,0-0.4,0.1c-0.1,0.1-0.2,0.2-0.2,0.3c0,0.1,0,0.3,0.1,0.4c0,0,0,0,0,0
		c-0.2,0.1-0.3,0.2-0.4,0.3l-0.3,0.3c-0.1,0.1-0.2,0.2-0.3,0.2c-0.1,0.1-0.2,0.1-0.4,0.2c-0.2,0.1-0.4,0.2-0.4,0.3
		c-0.1,0.1-0.4,0.3-0.7,0.5c-0.1,0.1-0.3,0.2-0.4,0.3c-0.1-0.2-0.2-0.3-0.2-0.4c-0.1-0.1-0.2-0.2-0.3-0.2c-0.1,0-0.3,0-0.4,0.1
		c-0.1,0.1-0.2,0.2-0.2,0.3c0,0.1,0,0.3,0.1,0.4c0.1,0.1,0.2,0.3,0.4,0.6C82.2,22.4,82.3,22.6,82.4,22.7z M86.1,22.3
		C86.1,22.3,86.1,22.3,86.1,22.3L86.1,22.3C86.1,22.3,86.1,22.3,86.1,22.3z M86.1,22.3L86.1,22.3C86.1,22.3,86.1,22.3,86.1,22.3
		C86.1,22.3,86.1,22.3,86.1,22.3z M86.7,21.7c-0.1,0.1-0.2,0.2-0.2,0.3c0,0,0,0.1,0,0.1c0,0,0,0,0,0c0-0.1-0.1-0.3-0.2-0.4
		c-0.1-0.1-0.2-0.1-0.4-0.1c0,0,0,0,0,0c-0.1,0-0.1,0-0.2,0c-0.2-0.3-0.3-0.6-0.5-0.8l0.6-0.5c0.1-0.1,0.2-0.1,0.3-0.2
		c0.1,0.1,0.2,0.3,0.3,0.4c0.3,0.4,0.5,0.7,0.7,1c0,0,0,0,0,0c0,0,0,0-0.1,0C86.9,21.6,86.8,21.6,86.7,21.7z"/>
	<path class="st0" d="M87,30.1c0.1,0,0.2-0.1,0.3-0.2c0.1-0.1,0.1-0.3,0-0.4c0,0-0.1-0.1-0.1-0.3c0.2,0,0.4,0,0.7,0
		c0.1,0.3,0.3,0.8,0.6,1.5c-0.2,0.1-0.3,0.3-0.4,0.4c-0.1-0.1-0.1-0.2-0.1-0.3l0,0c-0.1-0.1-0.1-0.2-0.2-0.3c-0.1-0.1-0.3-0.1-0.5,0
		c-0.1,0.1-0.2,0.1-0.3,0.2c-0.1,0.1-0.1,0.3,0,0.4c0.1,0.2,0.2,0.4,0.3,0.8c0.1,0.3,0.2,0.5,0.3,0.7c0,0.1,0.1,0.3,0.3,0.3
		c0.1,0,0.2,0.1,0.2,0.1c0,0,0.1,0,0.1,0c0.2,0,0.3-0.1,0.3-0.3c0.1-0.1,0.1-0.2,0-0.4c0-0.1-0.1-0.2-0.1-0.3
		c0.1-0.1,0.2-0.2,0.3-0.3c0.2-0.2,0.4-0.3,0.6-0.5l0.5-0.5c0.1-0.1,0.3-0.3,0.6-0.5l0.9-0.9c0.1-0.1,0.2-0.2,0.3-0.3
		c0,0,0.1-0.1,0.1-0.1l0.1-0.1l0-0.1c0-0.1,0-0.2,0-0.3l0.2-0.2l-0.3,0c-0.1-0.1-0.2-0.2-0.3-0.2l-0.1,0v0c0,0-0.1,0-0.1,0
		c-0.1,0-0.1,0-0.2,0l-0.3,0c-0.2,0-0.4,0-0.7,0c-0.4,0-0.6,0-0.7,0c-0.3,0-0.8,0-1.4,0c-0.5,0-0.9,0-1.2,0c0,0,0,0,0,0
		c0-0.1-0.1-0.2-0.2-0.3c-0.1-0.1-0.3-0.1-0.4-0.1c-0.1,0-0.3,0.1-0.4,0.2c-0.1,0.1-0.1,0.2-0.1,0.4c0,0.2,0.1,0.5,0.3,0.8
		c0.2,0.4,0.3,0.6,0.3,0.7c0.1,0.1,0.1,0.2,0.3,0.3C86.7,30.2,86.8,30.2,87,30.1z M89,29.3c0.2,0,0.3,0,0.4,0c0.1,0,0.3,0,0.5,0
		l-0.7,0.7C89.1,29.7,89,29.5,89,29.3z"/>
	<path class="st0" d="M91.1,36.9c-0.4,0.2-0.7,0.3-0.8,0.5c-0.2,0.2-0.3,0.4-0.4,0.7c-0.1,0.3-0.2,0.5-0.2,0.8
		c-0.1,0.7,0.1,1.2,0.5,1.6c0.2,0.2,0.5,0.3,0.9,0.4c0.2,0,0.4,0.1,0.7,0.1c0.8,0,1.7-0.2,2.8-0.7c0,0,0,0,0,0
		c0,0.1,0.1,0.2,0.2,0.3c0.1,0.1,0.3,0.1,0.4,0c0.1-0.1,0.2-0.1,0.3-0.3c0.1-0.1,0.1-0.3,0-0.4c-0.1-0.3-0.2-0.7-0.2-1
		c0-0.1-0.1-0.3-0.2-0.4c-0.1-0.1-0.3-0.1-0.4-0.1c-0.1,0-0.3,0.1-0.4,0.2c-0.1,0.1-0.1,0.2-0.1,0.4c0,0.1,0,0.1,0,0.2
		c-1.3,0.6-2.3,0.8-3,0.6c-0.3-0.1-0.3-0.1-0.3-0.1c-0.1-0.2-0.2-0.4-0.2-0.8c0-0.2,0.1-0.4,0.1-0.5c0.1-0.1,0.1-0.2,0.2-0.3
		c0,0,0.1-0.1,0.5-0.3c0.3-0.1,0.6-0.2,1-0.3c0.5-0.1,1-0.2,1.4-0.3c0,0.1,0.1,0.1,0.1,0.2c0.1,0.1,0.2,0.1,0.4,0.1
		c0.1,0,0.3-0.1,0.4-0.2c0.1-0.1,0.1-0.2,0.1-0.4l0-0.3c0-0.1,0-0.2,0-0.3l-0.1-0.3c0-0.2-0.1-0.3-0.1-0.3c-0.1-0.1-0.1-0.2-0.2-0.2
		c-0.1-0.1-0.3-0.1-0.4,0c-0.1,0-0.2,0.1-0.3,0.3c-0.1,0.1-0.1,0.3,0,0.4c-0.4,0.1-0.9,0.2-1.4,0.3C91.7,36.7,91.4,36.8,91.1,36.9z"
		/>
	<path class="st0" d="M45.7,49.5c0,6.3,8.8,5.9,9.8,0.7c0.1-0.5-0.2-2.8-0.5-3.4C52,42,45.7,44.1,45.7,49.5z"/>
	<path class="st0" d="M5.3,51.2c0.1-0.1,0.1-0.1,0-0.2c-0.2-0.2-0.3-0.4-0.3-0.6c0-0.1,0.1-0.3,0.3-0.5c0.2-0.2,0.3-0.4,0.3-0.6
		c0-0.2-0.1-0.5-0.4-0.7c-0.1,0-0.1,0-0.2,0c0,0.1,0,0.1,0,0.2c0.2,0.2,0.4,0.4,0.3,0.5c0,0.1-0.1,0.3-0.2,0.4
		C5,50,4.9,50.2,4.9,50.4c-0.1,0.3,0.1,0.5,0.3,0.8C5.2,51.3,5.3,51.3,5.3,51.2z"/>
	<path class="st0" d="M6.1,62.3c0.4,0.1,0.8,0,1-0.2c0.3-0.2,0.3-0.6,0.2-1c0-0.1-0.1-0.2-0.1-0.3c-0.1-0.2-0.2-0.3-0.3-0.4
		c-0.1-0.2-0.3-0.2-0.5-0.2c-0.1,0-0.2,0-0.2,0c-0.1,0-0.1,0-0.1,0.1C6,60.2,6,60.3,6,60.4c0,0.1,0.1,0.2,0.1,0.2c0.1,0,0.1,0,0.2,0
		c0.1-0.1,0.2-0.1,0.2-0.3c0.1,0,0.2,0.1,0.2,0.1c0.1,0.1,0.1,0.2,0.2,0.4C7,61,7.1,61.1,7.1,61.1c0.1,0.3,0,0.6-0.2,0.8
		C6.7,62,6.5,62.1,6.1,62c-0.1,0-0.2-0.1-0.3-0.1c-0.1-0.1-0.1-0.1-0.2-0.2c0-0.1-0.1-0.2-0.2-0.3l0,0c0,0,0,0,0,0c0,0,0,0,0,0
		c0-0.1,0-0.1,0-0.1c0-0.1-0.1-0.1-0.2-0.1c0,0-0.1,0-0.1,0.1c0,0,0,0,0,0c0,0,0,0,0,0c0,0,0,0.1,0,0.1l0,0.1l0,0l0,0l0,0
		c0,0.1-0.1,0.3-0.1,0.5c-0.1,0.2-0.3,0.4-0.6,0.5c-0.3,0.1-0.5,0.2-0.8,0.1c-0.1-0.1-0.3-0.2-0.4-0.3c-0.1-0.2-0.1-0.4-0.2-0.6
		c0-0.3,0.1-0.6,0.3-0.8c0,0,0,0,0,0c0,0,0,0,0.1,0.1c0.1,0.1,0.3,0.1,0.4,0c0.1,0,0.1-0.1,0.1-0.2c0,0,0-0.1,0-0.1
		c0-0.1,0-0.1-0.1-0.1c0,0-0.1,0-0.1,0c0,0-0.1,0-0.1,0c-0.1,0-0.1,0-0.2,0c-0.2,0.1-0.4,0.2-0.5,0.4c-0.1,0.2-0.2,0.5-0.2,0.7
		c0,0.3,0.1,0.5,0.2,0.7c0.1,0.2,0.3,0.4,0.5,0.4c0.3,0.1,0.6,0.1,0.9-0.1C5,62.5,5.2,62.3,5.4,62c0-0.1,0.1-0.2,0.1-0.3
		C5.6,62,5.8,62.2,6.1,62.3z"/>
	<path class="st0" d="M8,67.5c-0.1-0.3-0.3-0.6-0.6-0.7c0.5,0,0.9,0.1,1.3,0.3c0.4,0.2,0.7,0.4,0.8,0.7c0,0,0,0.1,0.1,0.1
		c0,0,0.1,0,0.1,0c0,0,0,0,0.1-0.1c0,0,0-0.1,0-0.1c-0.2-0.4-0.5-0.7-1-0.9c-0.5-0.2-1-0.3-1.5-0.3c-0.5,0-1,0.2-1.3,0.5
		c-0.4,0.3-0.5,0.8-0.4,1.3c0,0.3,0.2,0.5,0.3,0.6C6,69,6.2,69.1,6.4,69.2c0.2,0,0.4,0,0.7,0c0.4-0.1,0.6-0.3,0.8-0.6
		C8.1,68.3,8.1,67.9,8,67.5z M7.7,68.5c-0.1,0.2-0.4,0.4-0.7,0.5C6.7,69,6.5,69,6.2,68.8c-0.3-0.1-0.4-0.3-0.5-0.7
		c-0.1-0.5,0-0.8,0.3-1.1c0.2-0.2,0.5-0.3,0.8-0.4c0,0,0,0,0.1,0c0.4,0.1,0.7,0.3,0.9,0.7C7.9,67.9,7.9,68.2,7.7,68.5z"/>
	<path class="st0" d="M10.1,74c-0.2,0-0.3,0.1-0.5,0.1c-0.2,0-0.4,0-0.6,0.1c-0.2,0-0.4,0-0.5,0.1c0,0-0.1,0-0.1,0c0,0,0,0.1,0,0.1
		c0,0,0,0.1,0,0.1c0,0,0.1,0,0.1,0l0.5,0c0.2,0,0.4,0,0.6-0.1c0.2,0,0.3,0,0.5-0.1c0,0,0.1,0,0.1-0.1c0,0,0-0.1,0-0.1
		C10.3,74.1,10.3,74,10.1,74C10.2,74,10.2,74,10.1,74z"/>
	<path class="st0" d="M10.5,73.2c-0.3-0.2-0.7-0.3-1.1-0.2C9.2,73,9,73,8.8,73.1c-0.2,0.1-0.3,0.2-0.5,0.3c-0.2,0.1-0.3,0.3-0.4,0.4
		c-0.1,0.2-0.2,0.4-0.2,0.6c0,0.4,0.1,0.7,0.4,0.9c0.3,0.2,0.6,0.3,1,0.2c0.2,0,0.5-0.1,0.7-0.2c0.2-0.1,0.4-0.2,0.6-0.4
		c0.2-0.2,0.3-0.4,0.3-0.7c0.1,0,0.1-0.1,0.1-0.1C10.9,73.7,10.8,73.4,10.5,73.2z M10.7,73.9c0,0.2-0.1,0.4-0.2,0.5
		c-0.1,0.2-0.2,0.3-0.3,0.4c-0.1,0.1-0.3,0.2-0.4,0.3c-0.2,0.1-0.3,0.1-0.5,0.1c-0.4,0-0.6,0-0.9-0.2C8.1,74.9,8,74.7,8,74.4
		c0-0.2,0.1-0.4,0.2-0.6c0.1-0.2,0.3-0.3,0.5-0.4c0.2-0.1,0.4-0.2,0.6-0.2c0.3,0,0.6,0,0.8,0.1C10.5,73.4,10.6,73.6,10.7,73.9
		C10.7,73.9,10.7,73.9,10.7,73.9z"/>
	<path class="st0" d="M14.8,78.2c-0.3-0.6-1.1-0.8-1.7-0.4c-0.6,0.4-0.8,1.1-0.4,1.7c0.3,0.5,1,0.8,1.7,0.4
		C14.9,79.5,15.1,78.8,14.8,78.2L14.8,78.2z M14.1,79.4c-0.4,0.3-0.9,0.2-1.1-0.1c-0.2-0.3-0.1-0.8,0.4-1c0.3-0.2,0.9-0.3,1.1,0.1
		l0,0C14.7,78.8,14.4,79.2,14.1,79.4z"/>
	<path class="st0" d="M20.2,85.8C20.2,85.8,20.2,85.9,20.2,85.8C20.2,85.9,20.2,85.9,20.2,85.8c-0.1,0-0.1,0-0.1,0
		c0,0-0.1,0-0.1,0.1l-0.2,0.1c-0.1,0.1-0.3,0.2-0.5,0.3c-0.3,0.1-0.4,0.2-0.5,0.3c-0.2,0.1-0.6,0.3-1.1,0.5
		c-0.5,0.2-0.9,0.4-1.1,0.5c0,0,0,0,0,0c-0.1-0.1-0.2-0.2-0.2-0.2c0,0-0.1,0-0.1,0c0,0-0.1,0-0.1,0c0,0,0,0-0.1,0.1c0,0,0,0.1,0,0.1
		c0.1,0.1,0.2,0.3,0.5,0.5c0.3,0.2,0.4,0.4,0.5,0.4c0,0,0.1,0,0.1,0c0,0,0.1,0,0.1,0c0,0,0-0.1,0-0.1c0,0,0-0.1,0-0.1
		c0-0.1-0.2-0.2-0.5-0.5l0,0c0.2-0.1,0.6-0.3,1-0.4l0.1-0.1c0.2,0.2,0.6,0.6,1.2,1.2c0,0,0,0,0.1,0c-0.2,0.4-0.3,0.8-0.5,1.1
		c-0.2-0.2-0.4-0.4-0.5-0.5c0,0-0.1,0-0.1,0c0,0-0.1,0-0.1,0c0,0,0,0.1,0,0.1c0,0,0,0.1,0,0.1c0.1,0.1,0.3,0.3,0.5,0.5
		c0.2,0.2,0.4,0.4,0.5,0.5c0,0,0.1,0,0.1,0c0,0,0.1,0,0.1,0c0,0,0,0,0-0.1c0,0,0-0.1,0-0.1c-0.1-0.1-0.2-0.2-0.3-0.3
		c0.1-0.2,0.2-0.3,0.3-0.5c0.1-0.2,0.2-0.4,0.3-0.6l0.2-0.5c0.1-0.1,0.1-0.3,0.2-0.6l0.2-0.5l0.1-0.2l0.1-0.3c0-0.1,0.1-0.2,0.1-0.3
		c0,0,0-0.1,0-0.1c0,0,0,0,0-0.1c0,0,0-0.1,0-0.1C20.3,85.9,20.3,85.8,20.2,85.8z M20,86.3c0,0.1-0.1,0.2-0.1,0.3
		c0,0.1-0.1,0.2-0.1,0.2l-0.6,1.4c-0.6-0.5-0.9-0.9-1.1-1.1c0.3-0.1,0.5-0.2,0.7-0.3c0.1,0,0.3-0.1,0.5-0.2
		C19.6,86.4,19.8,86.3,20,86.3l0.1-0.1L20,86.3z"/>
	<path class="st0" d="M25.9,90c-0.1-0.1-0.4-0.2-0.6-0.3c-0.3-0.1-0.4-0.2-0.5-0.3c0,0-0.1,0-0.1,0c0,0-0.1,0-0.1,0.1
		c0,0,0,0.1,0,0.1c0,0,0,0.1,0.1,0.1c0.1,0,0.2,0.1,0.5,0.3l0,0c-0.1,0.5-0.4,1-0.8,1.6c0,0-0.1,0-0.1,0.1c0,0,0,0,0,0.1
		c-0.1,0.1-0.2,0.2-0.3,0.4c-0.1,0.2-0.2,0.4-0.3,0.5c-0.1,0.2-0.2,0.3-0.3,0.5c-0.2-0.1-0.4-0.2-0.6-0.3c0,0-0.1,0-0.1,0
		c0,0-0.1,0-0.1,0.1c0,0,0,0.1,0,0.1c0,0,0,0.1,0.1,0.1c0.2,0.1,0.6,0.3,1.3,0.7c0,0,0.1,0,0.1,0c0,0,0.1,0,0.1-0.1c0,0,0-0.1,0-0.1
		c0,0,0-0.1-0.1-0.1l-0.3-0.2l-0.3-0.2c0.1-0.1,0.2-0.3,0.3-0.4c0.1-0.2,0.2-0.3,0.3-0.5c0.1-0.2,0.2-0.3,0.3-0.4
		c0.2,0.1,0.4,0.2,0.6,0.3c0,0,0,0,0,0c0.2,0.2,0.3,0.5,0.3,1l0,0.7c0,0.2,0,0.3,0,0.4l0,0c0,0-0.1,0-0.1,0c0,0-0.1,0-0.1,0
		c0,0,0,0.1,0,0.1c0,0,0,0.1,0,0.1c0.1,0.1,0.2,0.2,0.5,0.3c0,0,0.1,0,0.1,0c0,0,0.1,0,0.1-0.1c0,0,0-0.1,0-0.1c0,0,0-0.1-0.1-0.1
		l-0.2-0.1c0-0.1,0-0.3,0-0.5l0-0.7c0-0.4-0.1-0.7-0.2-0.9c0.1,0,0.1,0,0.2,0c0.3,0.1,0.5,0.1,0.7,0c0.2-0.1,0.4-0.3,0.5-0.5
		c0-0.1,0.1-0.3,0.1-0.5c0-0.2,0-0.3-0.1-0.5C26.7,90.6,26.4,90.3,25.9,90z M26.6,91.6c-0.1,0.2-0.2,0.3-0.4,0.4
		c-0.2,0.1-0.3,0.1-0.6,0c-0.3-0.1-0.7-0.2-1.1-0.5c0.4-0.6,0.6-1.1,0.8-1.6c0.2,0.1,0.3,0.1,0.4,0.2c0.5,0.3,0.8,0.5,0.9,0.7
		c0,0.1,0.1,0.2,0.1,0.4C26.7,91.4,26.7,91.5,26.6,91.6z"/>
	<path class="st0" d="M33.9,93.6c-0.1,0-0.2-0.1-0.3-0.2c-0.3-0.1-0.6-0.2-1-0.4c-0.4-0.1-0.7-0.2-1-0.3c-0.2,0-0.3-0.1-0.4-0.1
		c-0.1,0-0.1,0-0.1,0c-0.1,0-0.1,0-0.1,0c-0.1,0.1-0.1,0.2-0.2,0.3c0,0,0,0.1,0,0.2c0,0.1,0,0.1,0,0.1c0,0,0,0.1,0,0.1
		c0,0,0,0,0.1,0.1c0,0,0.1,0,0.1,0c0,0,0,0,0.1-0.1c0,0,0-0.1,0-0.1c0-0.1,0-0.1,0-0.1c0-0.1,0-0.1,0.1-0.2c0,0,0,0,0.1,0
		c0.1,0,0.2,0,0.3,0.1c0.2,0.1,0.5,0.1,0.9,0.2c0,0.2-0.1,0.4-0.2,0.7c-0.1,0.4-0.1,0.6-0.2,0.7c0,0.1-0.1,0.4-0.3,1
		c-0.2,0.5-0.3,0.9-0.3,1l0,0c-0.2-0.1-0.5-0.1-0.7-0.2c0,0-0.1,0-0.1,0c0,0,0,0-0.1,0.1c0,0,0,0.1,0,0.1c0,0,0,0,0.1,0
		c0.3,0.1,0.7,0.2,1.4,0.4c0,0,0.1,0,0.1,0c0,0,0,0,0.1-0.1c0,0,0-0.1,0-0.1c0,0,0,0-0.1-0.1l-0.5-0.2l0,0c0-0.1,0.1-0.4,0.3-1
		c0.2-0.6,0.3-0.9,0.3-1c0-0.1,0.1-0.4,0.2-0.8c0.1-0.3,0.1-0.5,0.1-0.6c0.4,0.1,0.7,0.2,0.9,0.3c0.1,0.1,0.2,0.1,0.3,0.1
		c0,0,0,0,0.1,0c0,0,0,0.1,0,0.1c0,0,0,0.1,0,0.2c0,0,0,0.1,0,0.1c0,0,0,0,0.1,0.1c0,0,0.1,0,0.1,0c0,0,0,0,0.1-0.1
		c0-0.1,0-0.2,0-0.2c0,0,0-0.1,0-0.1c0,0,0,0,0,0c0,0,0,0,0-0.1c0,0,0-0.1-0.1-0.1C34,93.7,34,93.7,33.9,93.6z"/>
	<path class="st0" d="M45.5,97.9C45.5,97.9,45.4,97.9,45.5,97.9c-0.2,0.3-0.3,0.4-0.4,0.6c0,0-0.1,0.1-0.1,0.1l-0.1,0
		c0,0-0.1,0-0.1,0c-0.3,0.1-0.6,0.2-1,0.1c-0.3-0.1-0.6-0.3-0.8-0.6c-0.2-0.4-0.3-0.8-0.2-1.3c0.1-0.5,0.2-0.9,0.5-1.3
		c0.3-0.4,0.5-0.6,0.9-0.6c0.4,0,0.8,0.2,1.2,0.6c0,0,0,0,0,0c0,0.3,0,0.5,0,0.7c0,0,0,0.1,0,0.1c0,0,0,0,0.1,0.1c0,0,0.1,0,0.1,0
		c0,0,0,0,0.1-0.1c0-0.1,0-0.2,0-0.4c0-0.1,0-0.2,0-0.3c0-0.1,0-0.2,0-0.4c0-0.1,0-0.2,0-0.3c0,0,0-0.1,0-0.1c0,0-0.1,0-0.1,0
		c0,0-0.1,0-0.1,0c0,0,0,0.1,0,0.1c0,0.1,0,0.2,0,0.2c-0.4-0.4-0.8-0.5-1.2-0.5c-0.4,0-0.8,0.3-1.1,0.7c-0.3,0.4-0.4,0.9-0.5,1.4
		c-0.1,0.5,0,1,0.2,1.5c0.1,0.2,0.3,0.4,0.6,0.6c0.2,0.1,0.5,0.2,0.7,0.2c0.3,0,0.5,0,0.8-0.1c0,0,0,0,0.1,0c0,0,0.1,0,0.1,0
		c0.1,0,0.2-0.1,0.2-0.1c0.1-0.1,0.3-0.3,0.4-0.6c0,0,0-0.1,0-0.1C45.6,97.9,45.6,97.9,45.5,97.9C45.6,97.9,45.5,97.9,45.5,97.9z"/>
	<path class="st0" d="M53.2,95.5c-0.1-0.2-0.2-0.4-0.4-0.5c-0.1-0.2-0.3-0.3-0.5-0.4c-0.2-0.1-0.5-0.2-0.7-0.2l0,0l0,0c0,0,0,0,0,0
		c-0.3,0-0.5,0-0.8,0.2c-0.3,0.2-0.5,0.3-0.6,0.5c-0.2,0.2-0.3,0.5-0.4,0.9c-0.1,0.4,0,0.7,0,1.1c0.1,0.4,0.2,0.7,0.5,1
		c0.2,0.3,0.5,0.5,0.8,0.5c0.7,0.2,1.3,0.1,1.7-0.3c0.2-0.2,0.4-0.4,0.5-0.6c0.1-0.2,0.2-0.5,0.2-0.8c0-0.2,0-0.4,0-0.6
		C53.3,95.9,53.3,95.7,53.2,95.5z M53.2,96.7c0,0.5-0.2,0.9-0.6,1.2c-0.4,0.3-0.9,0.4-1.5,0.2c-0.3-0.1-0.5-0.2-0.7-0.5
		c-0.2-0.2-0.3-0.5-0.4-0.9c-0.1-0.3-0.1-0.7,0-1c0.1-0.3,0.2-0.6,0.3-0.8c0.1-0.1,0.3-0.3,0.6-0.4c0.2-0.1,0.4-0.2,0.7-0.1l0,0
		c0,0,0.1,0,0.1,0c0,0,0,0,0.1,0c0.3,0.1,0.5,0.2,0.7,0.3c0.2,0.1,0.4,0.3,0.5,0.5c0.1,0.2,0.2,0.4,0.3,0.6
		C53.2,96.2,53.2,96.5,53.2,96.7z"/>
	<path class="st0" d="M60.7,96c0-0.2-0.1-0.4-0.1-0.5c0,0,0-0.1-0.1-0.1c0,0-0.1,0-0.1,0c0,0-0.1,0-0.1,0.1c0,0,0,0.1,0,0.1
		c0,0.1,0.1,0.3,0.1,0.5c0,0.1,0,0.2,0,0.3c0,0,0,0.1,0,0.1c0,0,0,0,0,0c-0.1,0-0.2,0.1-0.3,0.1c-0.2,0.1-0.5,0.1-0.9,0.2l-0.7,0.2
		c-0.4-1.6-0.7-2.8-0.9-3.5l0.4-0.1c0,0,0.1,0,0.1-0.1c0,0,0-0.1,0-0.1c0,0,0-0.1-0.1-0.1c0,0-0.1,0-0.1,0l-0.4,0.1c0,0,0,0-0.1,0
		c0,0,0,0-0.1,0l-0.5,0.1c0,0-0.1,0-0.1,0.1c0,0,0,0.1,0,0.1c0,0,0,0.1,0.1,0.1c0,0,0.1,0,0.1,0l0.5-0.1c0.2,0.7,0.5,1.9,0.9,3.5
		L58,97l-0.2,0.1c0,0-0.1,0-0.1,0.1c0,0,0,0.1,0,0.1c0,0,0,0.1,0.1,0.1c0,0,0.1,0,0.1,0l1.5-0.4c0.4-0.1,0.7-0.2,0.9-0.2
		c0.1,0,0.2-0.1,0.3-0.1c0,0,0.1,0,0.1,0c0,0,0,0,0,0c0,0,0.1,0,0.1-0.1c0,0,0-0.1,0-0.1c0,0,0-0.1,0-0.1
		C60.7,96.2,60.7,96.1,60.7,96z"/>
	<path class="st0" d="M67.6,93.8c-0.1-0.2-0.1-0.4-0.1-0.5c0,0,0-0.1-0.1-0.1c0,0-0.1,0-0.1,0c0,0-0.1,0-0.1,0.1c0,0,0,0.1,0,0.1
		c0,0.1,0.1,0.2,0.1,0.5c0,0.1,0,0.2,0.1,0.3c0,0,0,0.1,0,0.1c0,0,0,0,0,0c-0.1,0-0.2,0.1-0.3,0.1c-0.2,0.1-0.5,0.2-0.9,0.3
		l-0.6,0.2c-0.5-1.5-1-2.7-1.3-3.4l0.4-0.1c0,0,0.1,0,0.1-0.1c0,0,0-0.1,0-0.1c0,0,0-0.1-0.1-0.1c0,0-0.1,0-0.1,0l-0.4,0.1
		c0,0-0.1,0-0.1,0c0,0,0,0,0,0l-0.5,0.2c0,0-0.1,0-0.1,0.1c0,0,0,0.1,0,0.1c0,0,0,0.1,0.1,0.1c0,0,0.1,0,0.1,0l0.5-0.2
		c0.3,0.7,0.7,1.9,1.3,3.4L65,95.1l-0.2,0.1c0,0-0.1,0-0.1,0.1c0,0,0,0.1,0,0.1c0,0,0,0.1,0.1,0.1c0,0,0.1,0,0.1,0l1.5-0.5
		c0.4-0.1,0.6-0.2,0.9-0.3c0.1,0,0.2-0.1,0.3-0.1c0,0,0.1,0,0.1,0c0,0,0,0,0,0c0,0,0,0,0.1-0.1c0,0,0-0.1,0-0.1c0,0,0-0.1,0-0.1
		C67.6,94,67.6,93.9,67.6,93.8z"/>
	<path class="st0" d="M74.2,90.2C74.2,90.2,74.1,90.2,74.2,90.2c-0.1-0.1-0.1-0.1-0.2-0.1c0,0-0.1,0-0.1,0.1c0,0,0,0.1,0,0.1
		c0.1,0.3,0.2,0.5,0.2,0.5c0.1,0.2,0.1,0.4,0,0.5c0,0-0.1,0.1-0.2,0.2c-0.1,0.1-0.3,0.1-0.5,0.2l-0.3,0.1c-0.1,0-0.3,0.1-0.4,0.1
		c-0.1,0-0.2,0.1-0.2,0.1c-0.1,0-0.1,0.1-0.2,0.1c0,0,0,0,0,0c-0.1-0.1-0.2-0.3-0.3-0.6c-0.2-0.3-0.3-0.5-0.3-0.6
		c0-0.1-0.1-0.2-0.1-0.3c0.3-0.1,0.7-0.3,1.3-0.6c0,0,0.1,0.1,0.1,0.1c0,0,0,0,0.1,0c0,0,0.1,0,0.1,0c0,0,0,0,0-0.1c0,0,0-0.1,0-0.1
		c0,0-0.1-0.1-0.2-0.3c-0.1-0.1-0.1-0.2-0.2-0.3c0,0,0,0-0.1,0c0,0-0.1,0-0.1,0c0,0,0,0,0,0.1c0,0,0,0.1,0,0.1
		c0,0.1,0.1,0.1,0.1,0.2c-0.6,0.3-1,0.5-1.3,0.6c0-0.1-0.1-0.2-0.1-0.2l-0.2-0.3c-0.1-0.1-0.1-0.2-0.2-0.3c0-0.1-0.1-0.2-0.2-0.3
		c-0.1-0.1-0.1-0.2-0.1-0.3c0.1-0.1,0.3-0.2,0.6-0.3c0.5-0.2,0.9-0.4,1.1-0.6c0.1,0.1,0.1,0.2,0.2,0.3c0.1,0.1,0.1,0.2,0.1,0.2
		c0,0,0,0-0.1,0.1c0,0,0,0.1,0,0.1c0,0,0,0.1,0.1,0.1c0,0,0.1,0,0.1,0c0,0,0,0,0,0c0.1,0,0.1-0.1,0.1-0.1c0,0,0,0,0-0.1l0,0l0,0
		c0,0,0,0,0-0.1c0-0.1-0.1-0.1-0.1-0.2l-0.2-0.4c0,0-0.1,0-0.1,0c0,0-0.1,0-0.1,0c-0.2,0.2-0.6,0.4-1.2,0.6
		c-0.3,0.1-0.5,0.3-0.7,0.3c0,0,0,0-0.1,0c0,0-0.1,0-0.1,0.1c-0.1,0.1-0.3,0.2-0.4,0.2c0,0,0,0-0.1,0.1c0,0,0,0.1,0,0.1
		c0,0,0,0,0.1,0.1c0,0,0.1,0,0.1,0c0.1-0.1,0.2-0.1,0.3-0.2c0,0.1,0.1,0.2,0.1,0.3c0.1,0.1,0.1,0.2,0.2,0.3l0.2,0.3
		c0.1,0.1,0.1,0.2,0.2,0.3c0,0.1,0.1,0.2,0.2,0.4c0.1,0.2,0.2,0.3,0.2,0.4c0.1,0.1,0.2,0.3,0.3,0.6c0.2,0.3,0.3,0.5,0.3,0.6
		c0,0,0,0,0,0l-0.1,0.1c-0.3,0.1-0.4,0.2-0.5,0.3c0,0-0.1,0-0.1,0.1c0,0,0,0.1,0,0.1c0,0,0,0.1,0.1,0.1c0,0,0.1,0,0.1,0
		c0.1,0,0.2-0.1,0.5-0.3c0.2-0.1,0.4-0.2,0.5-0.3c0,0,0.1,0,0.2-0.1c0.1,0,0.2-0.1,0.3-0.1c0.1,0,0.3-0.1,0.4-0.1
		c0.2-0.1,0.4-0.1,0.5-0.2c0.2-0.1,0.3-0.2,0.3-0.3c0.1-0.2,0.1-0.4,0-0.6C74.4,90.7,74.3,90.5,74.2,90.2z"/>
	<path class="st0" d="M80.6,86.4C80.6,86.4,80.5,86.4,80.6,86.4c-0.1,0-0.1,0-0.2,0c0,0,0,0.1,0,0.1c0,0.2,0,0.4,0,0.6
		c0,0,0,0.1-0.1,0.1l-0.1,0.1c0,0,0,0.1-0.1,0.1c-0.2,0.3-0.4,0.5-0.8,0.6c-0.3,0.1-0.7,0.1-1-0.1c-0.4-0.2-0.7-0.5-0.9-1
		c-0.2-0.4-0.4-0.9-0.4-1.3c0-0.5,0.1-0.8,0.4-1c0.3-0.2,0.7-0.3,1.3-0.1c0,0,0,0,0.1,0c0.2,0.2,0.3,0.4,0.4,0.6c0,0,0,0.1,0.1,0.1
		c0,0,0.1,0,0.1,0c0,0,0.1,0,0.1-0.1c0,0,0-0.1,0-0.1c0-0.1-0.1-0.2-0.2-0.3c-0.1-0.1-0.1-0.2-0.2-0.3c-0.1-0.1-0.2-0.2-0.2-0.3
		c-0.1-0.1-0.2-0.2-0.2-0.2c0,0,0,0-0.1,0c0,0-0.1,0-0.1,0c0,0,0,0,0,0.1c0,0,0,0.1,0,0.1c0,0.1,0.1,0.1,0.2,0.2
		c-0.5-0.1-0.9,0-1.2,0.2c-0.3,0.3-0.5,0.7-0.5,1.2c0,0.5,0.1,1,0.4,1.4c0.3,0.5,0.6,0.8,1,1.1c0.3,0.1,0.5,0.2,0.8,0.1
		c0.3,0,0.5-0.1,0.7-0.3c0.2-0.1,0.4-0.3,0.5-0.6c0,0,0,0,0.1-0.1c0,0,0-0.1,0.1-0.1c0.1-0.1,0.1-0.2,0.1-0.2
		C80.7,87,80.7,86.8,80.6,86.4C80.6,86.5,80.6,86.5,80.6,86.4z"/>
	<path class="st0" d="M86,82.6C86,82.6,85.9,82.6,86,82.6l-0.5,0.4l0,0c-0.1-0.1-0.3-0.3-0.7-0.7c-0.4-0.4-0.6-0.7-0.7-0.7
		c-0.1-0.1-0.3-0.2-0.6-0.5c-0.2-0.2-0.4-0.3-0.5-0.4c0.3-0.3,0.5-0.5,0.7-0.7c0.1-0.1,0.2-0.2,0.3-0.2c0,0,0,0,0.1,0
		c0,0,0,0,0.1,0.1c0,0,0,0,0.1,0.1c0,0,0,0,0.1,0c0,0,0.1,0,0.1,0c0,0,0-0.1,0-0.1c0,0,0-0.1,0-0.1c-0.1-0.1-0.1-0.1-0.1-0.1
		c0,0-0.1-0.1-0.1-0.1c0,0,0,0,0,0c0,0,0,0,0,0c0,0-0.1,0-0.1,0c0,0-0.1,0-0.1,0.1c-0.1,0.1-0.2,0.1-0.3,0.2
		c-0.2,0.2-0.5,0.4-0.8,0.7c-0.3,0.3-0.5,0.5-0.7,0.8c-0.1,0.1-0.2,0.2-0.2,0.3c0,0-0.1,0.1-0.1,0.1c0,0.1,0,0.1,0,0.1
		c0,0.1,0.1,0.2,0.2,0.3c0,0,0.1,0.1,0.1,0.1c0,0,0.1,0.1,0.1,0.1c0,0,0.1,0,0.1,0c0,0,0.1,0,0.1,0c0,0,0-0.1,0-0.1c0,0,0-0.1,0-0.1
		c0,0-0.1,0-0.1-0.1c0,0-0.1-0.1-0.1-0.1c-0.1-0.1-0.1-0.1-0.1-0.1c0,0,0,0,0-0.1c0.1-0.1,0.1-0.2,0.2-0.3c0.2-0.2,0.4-0.4,0.6-0.6
		c0.1,0.1,0.3,0.3,0.5,0.4c0.3,0.2,0.5,0.4,0.6,0.5c0.1,0.1,0.3,0.3,0.7,0.7c0.4,0.4,0.6,0.7,0.7,0.7l0,0c-0.2,0.2-0.3,0.4-0.5,0.5
		c0,0,0,0.1,0,0.1c0,0,0,0.1,0,0.1c0,0,0.1,0,0.1,0c0,0,0.1,0,0.1,0c0.2-0.2,0.5-0.6,1-1.1c0,0,0-0.1,0-0.1
		C86.1,82.7,86.1,82.7,86,82.6C86,82.6,86,82.6,86,82.6z"/>
	<path class="st0" d="M90.4,77.4C90.4,77.4,90.3,77.4,90.4,77.4c-0.2,0.2-0.3,0.3-0.4,0.5c0,0,0,0,0,0c-0.1-0.1-0.2-0.1-0.3-0.2
		c-0.1-0.1-0.2-0.1-0.4-0.2l-0.3-0.2c-0.2-0.1-0.4-0.2-0.6-0.4c-0.2-0.1-0.4-0.3-0.7-0.5c-0.3-0.2-0.5-0.3-0.6-0.4
		c0.2-0.2,0.3-0.4,0.4-0.5c0,0,0-0.1,0-0.1c0,0,0-0.1-0.1-0.1c0,0-0.1,0-0.1,0c0,0-0.1,0-0.1,0.1c-0.1,0.1-0.2,0.3-0.4,0.6
		c-0.2,0.2-0.4,0.4-0.5,0.6c0,0,0,0.1,0,0.1c0,0,0,0.1,0.1,0.1c0,0,0.1,0,0.1,0c0,0,0.1,0,0.1-0.1c0.1-0.1,0.2-0.3,0.4-0.5
		c0.1,0.1,0.3,0.2,0.6,0.4c0.3,0.2,0.5,0.4,0.7,0.5c0.2,0.1,0.4,0.3,0.6,0.4c0,0,0.1,0.1,0.3,0.2c0.2,0.1,0.3,0.2,0.4,0.2
		c0.1,0.1,0.2,0.1,0.3,0.2c0,0,0,0,0,0l0,0c-0.2,0.3-0.4,0.6-0.5,0.7c0,0,0,0.1,0,0.1c0,0,0,0.1,0,0.1c0,0,0.1,0,0.1,0
		c0,0,0.1,0,0.1,0c0-0.1,0.2-0.3,0.5-0.7c0.2-0.3,0.3-0.5,0.5-0.6c0,0,0-0.1,0-0.1C90.5,77.4,90.5,77.4,90.4,77.4
		C90.5,77.4,90.4,77.3,90.4,77.4z"/>
	<path class="st0" d="M93.5,72c0-0.1-0.1-0.1-0.2-0.2c-0.2-0.2-0.3-0.3-0.4-0.4c-0.2-0.2-0.4-0.4-0.7-0.7c-0.3-0.3-0.5-0.6-0.7-0.7
		c-0.1,0-0.1-0.1-0.2-0.2c-0.1-0.1-0.2-0.2-0.2-0.2c-0.1-0.1-0.1-0.1-0.2-0.2l0.2-0.3c0,0,0-0.1,0-0.1c0,0,0-0.1-0.1-0.1
		c0,0-0.1,0-0.1,0c0,0-0.1,0-0.1,0.1l-0.4,0.9c0,0,0,0.1,0,0.1c0,0,0,0.1,0.1,0.1c0,0,0.1,0,0.1,0c0,0,0.1,0,0.1-0.1l0.2-0.4
		c0.1,0.1,0.2,0.2,0.3,0.3c0.2,0.1,0.2,0.2,0.2,0.2c0.2,0.1,0.4,0.4,0.7,0.7c0.3,0.3,0.5,0.6,0.7,0.7c0.1,0.1,0.2,0.2,0.4,0.4
		l0.1,0.1L93,72l-0.5,0c-0.1,0-0.2,0-0.4,0l-0.4,0c-0.2,0-0.6,0-1.1-0.1c-0.4,0-0.7-0.1-0.9-0.1c0.1-0.2,0.2-0.4,0.2-0.5
		c0,0,0-0.1,0-0.1c0,0,0,0-0.1-0.1c0,0-0.1,0-0.1,0c0,0,0,0-0.1,0.1c0,0.1-0.1,0.3-0.2,0.6l0,0.1c0,0,0,0.1,0,0.1
		c-0.1,0.2-0.1,0.3-0.2,0.4c0,0,0,0.1,0,0.1c0,0,0,0.1,0.1,0.1c0,0,0.1,0,0.1,0c0,0,0.1,0,0.1-0.1c0-0.1,0.1-0.2,0.2-0.4
		c0.2,0,0.6,0,1,0.1c0.5,0.1,0.9,0.1,1.1,0.1c0.1,0,0.2,0,0.4,0c0.2,0,0.3,0,0.4,0c0.1,0,0.3,0,0.5,0c0.1,0,0.2,0,0.3,0
		c0,0,0.1,0,0.1,0c0,0,0,0,0,0c0,0,0,0,0,0c0,0,0.1,0,0.1-0.1c0,0,0-0.1,0-0.1C93.6,72.1,93.6,72.1,93.5,72C93.5,72,93.5,72,93.5,72
		z"/>
	<path class="st0" d="M96.4,63c-0.1,0-0.3-0.1-0.6-0.2c0,0-0.1,0-0.1,0c0,0,0,0-0.1,0.1c0,0,0,0.1,0,0.1c0,0,0,0.1,0.1,0.1
		c0.3,0.1,0.5,0.2,0.5,0.2c0.2,0.1,0.3,0.2,0.4,0.3c0,0,0,0.1,0,0.3c0,0.1-0.1,0.3-0.2,0.5l-0.2,0.3c-0.1,0.1-0.1,0.2-0.2,0.3
		c0,0.1-0.1,0.2-0.1,0.2c0,0.1,0,0.2-0.1,0.2c0,0,0,0,0,0c-0.1,0-0.4-0.1-0.7-0.1c-0.3-0.1-0.5-0.1-0.7-0.1c-0.1,0-0.2-0.1-0.3-0.1
		c0.1-0.3,0.3-0.7,0.4-1.4c0.1,0,0.1,0,0.2,0c0,0,0.1,0,0.1,0c0,0,0,0,0-0.1c0,0,0-0.1,0-0.1c0,0,0,0-0.1,0c0,0-0.1,0-0.3,0
		c-0.1,0-0.3,0-0.3,0c0,0-0.1,0-0.1,0c0,0,0,0.1,0,0.1c0,0,0,0.1,0,0.1c0,0,0.1,0,0.1,0c0.1,0,0.1,0,0.2,0c-0.2,0.7-0.3,1.1-0.4,1.3
		c-0.1,0-0.2,0-0.2-0.1l-0.3,0c-0.1,0-0.3,0-0.3-0.1c-0.1,0-0.2,0-0.3-0.1c-0.1,0-0.2-0.1-0.3-0.1c0-0.1,0.1-0.4,0.2-0.7
		c0.1-0.5,0.2-0.9,0.3-1.2c0.1,0,0.2,0,0.3,0c0.1,0,0.2,0,0.2,0c0,0,0,0.1,0,0.1c0,0,0,0,0.1,0.1c0,0,0.1,0,0.1,0c0,0,0,0,0.1-0.1
		c0,0,0,0,0,0c0-0.1,0-0.1,0-0.2c0,0,0,0,0,0l0,0l0,0c0,0-0.1,0-0.1,0c-0.1,0-0.2,0-0.3,0l-0.4-0.1c0,0-0.1,0-0.1,0c0,0,0,0-0.1,0.1
		c0,0.3-0.1,0.7-0.3,1.3c-0.1,0.3-0.2,0.6-0.2,0.7c0,0,0,0,0,0c0,0,0,0.1,0,0.1c0,0.2-0.1,0.3-0.1,0.4c0,0,0,0.1,0,0.1
		c0,0,0,0,0.1,0c0,0,0.1,0,0.1,0c0,0,0,0,0-0.1c0-0.1,0-0.2,0.1-0.3c0.1,0,0.2,0.1,0.3,0.1c0.1,0,0.3,0.1,0.3,0.1l0.3,0
		c0.1,0,0.2,0,0.3,0.1c0.1,0,0.2,0,0.4,0.1c0.2,0.1,0.3,0.1,0.4,0.1c0.1,0,0.4,0.1,0.7,0.1c0.3,0.1,0.5,0.1,0.7,0.1c0,0,0,0,0,0
		l0,0.1c-0.1,0.3-0.1,0.5-0.1,0.6c0,0,0,0.1,0,0.1c0,0,0,0,0.1,0.1c0,0,0.1,0,0.1,0c0,0,0,0,0.1-0.1c0-0.1,0.1-0.3,0.1-0.6
		c0.1-0.2,0.1-0.4,0.1-0.5c0,0,0-0.1,0.1-0.2c0-0.1,0.1-0.2,0.2-0.3c0.1-0.1,0.1-0.2,0.2-0.3c0.1-0.2,0.2-0.4,0.2-0.5
		c0.1-0.2,0.1-0.3,0-0.4C96.8,63.3,96.7,63.1,96.4,63z"/>
	<path class="st0" d="M96.2,52.9c0,0.2,0.2,0.5,0.5,0.7c0.1,0,0.1,0,0.2,0c0-0.1,0-0.1,0-0.2c-0.3-0.2-0.4-0.3-0.4-0.5
		c0-0.1,0.1-0.3,0.2-0.5c0.2-0.3,0.3-0.5,0.3-0.6c0-0.3-0.1-0.5-0.4-0.8c-0.1-0.1-0.1-0.1-0.2,0c-0.1,0.1-0.1,0.1,0,0.2
		c0.2,0.2,0.3,0.4,0.3,0.6c0,0.1-0.1,0.3-0.3,0.5C96.3,52.6,96.2,52.8,96.2,52.9z"/>
</g>
</svg>
