<svg xmlns="http://www.w3.org/2000/svg" viewBox="0 0 105.58 132.69"><defs><style>.cls-1{isolation:isolate;}.cls-2{fill:#abadb9;}.cls-3{fill:#8a73b4;}.cls-4{fill:#e6e7e8;}.cls-5{fill:#231f20;opacity:0.15;mix-blend-mode:multiply;}.cls-6{fill:#9c88c0;}.cls-7{fill:#fff;}.cls-8{fill:none;stroke:#fff;stroke-miterlimit:10;stroke-width:0.66px;}</style></defs><title>ICON_php</title><g class="cls-1"><g id="Layer_2" data-name="Layer 2"><g id="ÿ__1" data-name="ÿ‡_1"><path class="cls-2" d="M76.12,2.15H8a8,8,0,0,0-8,8V124.68a8,8,0,0,0,8,8H97.62a8,8,0,0,0,8-8V31.79Z"/><path class="cls-3" d="M76.12,0H8A8,8,0,0,0,0,8v113.8a8,8,0,0,0,8,8H97.62a8,8,0,0,0,8-8V29.46Z"/><path class="cls-4" d="M0,49.55v72.21a8,8,0,0,0,8,8H97.62a8,8,0,0,0,8-8V49.55Z"/><path class="cls-5" d="M76.16,0,74.63,28a5.23,5.23,0,0,0,5.22,5.22l25.71-3.8v0Z"/><path class="cls-6" d="M76.16,0l0,24.23a5.23,5.23,0,0,0,5.22,5.22h24.23v0Z"/><path class="cls-7" d="M16.81,26.71v5H14.63V18.58h5.11a4.84,4.84,0,0,1,3.39,1.12,3.79,3.79,0,0,1,1.23,2.94,3.79,3.79,0,0,1-1.23,3,4.88,4.88,0,0,1-3.39,1.11Zm0-1.75h2.93a2.39,2.39,0,0,0,1.82-.65,2.3,2.3,0,0,0,.61-1.64,2.21,2.21,0,0,0-2.44-2.33H16.81Z"/><path class="cls-7" d="M36.55,31.67H34.38V26.08H28.52v5.58H26.34V18.58h2.18v5.75h5.86V18.58h2.18Z"/><path class="cls-7" d="M41.42,26.71v5H39.24V18.58h5.12a4.84,4.84,0,0,1,3.39,1.12A3.79,3.79,0,0,1,49,22.64a3.79,3.79,0,0,1-1.23,3,4.87,4.87,0,0,1-3.39,1.11Zm0-1.75h2.93a2.39,2.39,0,0,0,1.82-.65,2.3,2.3,0,0,0,.61-1.64,2.21,2.21,0,0,0-2.44-2.33H41.42Z"/><line class="cls-8" y1="49.55" x2="105.58" y2="49.55"/><path class="cls-7" d="M52.75,74.31c-3.32,0-7.24,2-7.84,7.4h3.15c.66-3.32,2.92-4.52,4.76-4.52a4.63,4.63,0,0,1,4.65,4.69c0,2.17-1.24,3.7-2.55,5.31-1.58,1.95-3.35,4.14-3.6,8.12h3.23c.26-3.4,1.88-5.41,3.32-7.19s2.86-3.54,2.86-6.66C60.73,76.81,56.62,74.31,52.75,74.31Z"/><circle class="cls-7" cx="53.03" cy="101.74" r="2.16"/><polygon class="cls-7" points="25.12 93.28 40.61 101.99 40.61 98.09 29.52 91.84 40.61 85.64 40.61 81.73 25.12 90.44 25.12 93.28"/><polygon class="cls-7" points="64.96 81.73 64.96 85.64 76.06 91.84 64.96 98.09 64.96 101.99 80.45 93.28 80.45 90.44 64.96 81.73"/><path class="cls-2" d="M52.75,73.12c-3.32,0-7.24,2-7.84,7.4h3.15C48.72,77.2,51,76,52.82,76a4.63,4.63,0,0,1,4.65,4.69c0,2.17-1.24,3.7-2.55,5.31-1.58,1.95-3.35,4.14-3.6,8.12h3.23c.26-3.4,1.88-5.41,3.32-7.19s2.86-3.54,2.86-6.66C60.73,75.62,56.62,73.12,52.75,73.12Z"/><circle class="cls-2" cx="53.03" cy="100.56" r="2.16"/><polygon class="cls-2" points="25.12 92.1 40.61 100.81 40.61 96.91 29.52 90.65 40.61 84.45 40.61 80.54 25.12 89.25 25.12 92.1"/><polygon class="cls-2" points="64.96 80.54 64.96 84.45 76.06 90.65 64.96 96.91 64.96 100.81 80.45 92.1 80.45 89.25 64.96 80.54"/></g></g></g></svg>