<svg xmlns="http://www.w3.org/2000/svg" viewBox="0 0 105.58 132.69"><defs><style>.cls-1{isolation:isolate;}.cls-2{fill:#abadb9;}.cls-3{fill:#f27265;}.cls-4{fill:#e6e7e8;}.cls-5{fill:#231f20;opacity:0.15;mix-blend-mode:multiply;}.cls-6{fill:#f58e7d;}.cls-7{fill:#fff;}.cls-8{fill:none;stroke:#fff;stroke-miterlimit:10;stroke-width:0.66px;}</style></defs><title>ICON_png</title><g class="cls-1"><g id="Layer_2" data-name="Layer 2"><g id="ÿ__1" data-name="ÿ‡_1"><path class="cls-2" d="M76.12,2.15H8a8,8,0,0,0-8,8V124.68a8,8,0,0,0,8,8H97.62a8,8,0,0,0,8-8V31.79Z"/><path class="cls-3" d="M105.58,49.55V29.46L76.12,0H8A8,8,0,0,0,0,8V49.55Z"/><path class="cls-4" d="M0,49.55v72.21a8,8,0,0,0,8,8H97.62a8,8,0,0,0,8-8V49.55Z"/><path class="cls-5" d="M76.16,0,74.63,28a5.23,5.23,0,0,0,5.22,5.22l25.71-3.8v0Z"/><path class="cls-6" d="M76.16,0l0,24.23a5.23,5.23,0,0,0,5.22,5.22h24.23v0Z"/><path class="cls-7" d="M16.81,26.71v5H14.63V18.58h5.11a4.85,4.85,0,0,1,3.39,1.12,3.79,3.79,0,0,1,1.23,2.94,3.78,3.78,0,0,1-1.23,3,4.87,4.87,0,0,1-3.39,1.11Zm0-1.75h2.93a2.4,2.4,0,0,0,1.83-.65,2.3,2.3,0,0,0,.61-1.64,2.2,2.2,0,0,0-2.44-2.33H16.81Z"/><path class="cls-7" d="M36.56,31.67H34.38l-5.81-9.55-.05,0v9.54H26.34V18.58h2.18l5.81,9.55.05,0V18.58h2.18Z"/><path class="cls-7" d="M49,29.9a4.56,4.56,0,0,1-1.71,1.35,6.74,6.74,0,0,1-3.06.61,5.33,5.33,0,0,1-3.89-1.5,5.18,5.18,0,0,1-1.53-3.87V23.76a5.34,5.34,0,0,1,1.44-3.87A5,5,0,0,1,44,18.39a5.22,5.22,0,0,1,3.59,1.14,3.85,3.85,0,0,1,1.31,3l0,.05H46.78A2.54,2.54,0,0,0,46,20.8a2.83,2.83,0,0,0-2-.66,2.69,2.69,0,0,0-2.19,1A3.94,3.94,0,0,0,41,23.74v2.75a3.77,3.77,0,0,0,.9,2.6,3,3,0,0,0,2.34,1,4.86,4.86,0,0,0,1.66-.24,2.3,2.3,0,0,0,.93-.56V26.65h-2.6V25H49Z"/><line class="cls-8" y1="49.55" x2="105.58" y2="49.55"/><rect class="cls-7" x="28.3" y="71.55" width="5.44" height="5.44"/><rect class="cls-7" x="28.3" y="76.99" width="5.44" height="5.44"/><rect class="cls-7" x="28.3" y="82.43" width="5.44" height="5.44"/><rect class="cls-7" x="28.3" y="87.88" width="5.44" height="5.44"/><rect class="cls-7" x="28.3" y="93.32" width="5.44" height="5.44"/><rect class="cls-7" x="28.3" y="98.76" width="5.44" height="5.44"/><rect class="cls-7" x="28.3" y="104.2" width="5.44" height="5.44"/><rect class="cls-7" x="33.74" y="71.55" width="5.44" height="5.44"/><rect class="cls-7" x="33.74" y="76.99" width="5.44" height="5.44"/><rect class="cls-7" x="33.74" y="82.43" width="5.44" height="5.44"/><rect class="cls-7" x="33.74" y="87.88" width="5.44" height="5.44"/><rect class="cls-7" x="33.74" y="93.32" width="5.44" height="5.44"/><rect class="cls-7" x="33.74" y="98.76" width="5.44" height="5.44"/><rect class="cls-7" x="33.74" y="104.2" width="5.44" height="5.44"/><rect class="cls-7" x="39.18" y="71.55" width="5.44" height="5.44"/><rect class="cls-7" x="39.18" y="76.99" width="5.44" height="5.44"/><rect class="cls-7" x="39.18" y="82.43" width="5.44" height="5.44"/><rect class="cls-7" x="39.18" y="87.88" width="5.44" height="5.44"/><rect class="cls-7" x="39.18" y="93.32" width="5.44" height="5.44"/><rect class="cls-7" x="39.18" y="98.76" width="5.44" height="5.44"/><rect class="cls-7" x="39.18" y="104.2" width="5.44" height="5.44"/><rect class="cls-7" x="44.63" y="71.55" width="5.44" height="5.44"/><rect class="cls-7" x="44.63" y="76.99" width="5.44" height="5.44"/><rect class="cls-7" x="44.63" y="82.43" width="5.44" height="5.44"/><rect class="cls-7" x="44.63" y="87.88" width="5.44" height="5.44"/><rect class="cls-7" x="44.63" y="93.32" width="5.44" height="5.44"/><rect class="cls-7" x="44.63" y="98.76" width="5.44" height="5.44"/><rect class="cls-7" x="44.63" y="104.2" width="5.44" height="5.44"/><rect class="cls-7" x="50.07" y="71.55" width="5.44" height="5.44"/><rect class="cls-7" x="50.07" y="76.99" width="5.44" height="5.44"/><rect class="cls-7" x="50.07" y="82.43" width="5.44" height="5.44"/><rect class="cls-7" x="50.07" y="87.88" width="5.44" height="5.44"/><rect class="cls-7" x="50.07" y="93.32" width="5.44" height="5.44"/><rect class="cls-7" x="50.07" y="98.76" width="5.44" height="5.44"/><rect class="cls-7" x="50.07" y="104.2" width="5.44" height="5.44"/><rect class="cls-7" x="55.51" y="71.55" width="5.44" height="5.44"/><rect class="cls-7" x="55.51" y="76.99" width="5.44" height="5.44"/><rect class="cls-7" x="55.51" y="82.43" width="5.44" height="5.44"/><rect class="cls-7" x="55.51" y="87.88" width="5.44" height="5.44"/><rect class="cls-7" x="55.51" y="93.32" width="5.44" height="5.44"/><rect class="cls-7" x="55.51" y="98.76" width="5.44" height="5.44"/><rect class="cls-7" x="55.51" y="104.2" width="5.44" height="5.44"/><rect class="cls-7" x="60.95" y="71.55" width="5.44" height="5.44"/><rect class="cls-7" x="60.95" y="76.99" width="5.44" height="5.44"/><rect class="cls-7" x="60.95" y="82.43" width="5.44" height="5.44"/><rect class="cls-7" x="60.95" y="87.88" width="5.44" height="5.44"/><rect class="cls-7" x="60.95" y="93.32" width="5.44" height="5.44"/><rect class="cls-7" x="60.95" y="98.76" width="5.44" height="5.44"/><rect class="cls-7" x="60.95" y="104.2" width="5.44" height="5.44"/><rect class="cls-7" x="66.4" y="71.55" width="5.44" height="5.44"/><rect class="cls-7" x="66.4" y="76.99" width="5.44" height="5.44"/><rect class="cls-7" x="66.4" y="82.43" width="5.44" height="5.44"/><rect class="cls-7" x="66.4" y="87.88" width="5.44" height="5.44"/><rect class="cls-7" x="66.4" y="93.32" width="5.44" height="5.44"/><rect class="cls-7" x="66.4" y="98.76" width="5.44" height="5.44"/><rect class="cls-7" x="66.4" y="104.2" width="5.44" height="5.44"/><rect class="cls-7" x="71.84" y="71.55" width="5.44" height="5.44"/><rect class="cls-7" x="71.84" y="76.99" width="5.44" height="5.44"/><rect class="cls-7" x="71.84" y="82.43" width="5.44" height="5.44"/><rect class="cls-7" x="71.84" y="87.88" width="5.44" height="5.44"/><rect class="cls-7" x="71.84" y="93.32" width="5.44" height="5.44"/><rect class="cls-7" x="71.84" y="98.76" width="5.44" height="5.44"/><rect class="cls-7" x="71.84" y="104.2" width="5.44" height="5.44"/><rect class="cls-2" x="28.3" y="70.36" width="5.44" height="5.44"/><rect class="cls-4" x="28.3" y="75.8" width="5.44" height="5.44"/><rect class="cls-2" x="28.3" y="81.25" width="5.44" height="5.44"/><rect class="cls-4" x="28.3" y="86.69" width="5.44" height="5.44"/><rect class="cls-2" x="28.3" y="92.13" width="5.44" height="5.44"/><rect class="cls-4" x="28.3" y="97.57" width="5.44" height="5.44"/><rect class="cls-2" x="28.3" y="103.02" width="5.44" height="5.44"/><rect class="cls-4" x="33.74" y="70.36" width="5.44" height="5.44"/><rect class="cls-2" x="33.74" y="75.8" width="5.44" height="5.44"/><rect class="cls-4" x="33.74" y="81.25" width="5.44" height="5.44"/><rect class="cls-2" x="33.74" y="86.69" width="5.44" height="5.44"/><rect class="cls-4" x="33.74" y="92.13" width="5.44" height="5.44"/><rect class="cls-2" x="33.74" y="97.57" width="5.44" height="5.44"/><rect class="cls-4" x="33.74" y="103.02" width="5.44" height="5.44"/><rect class="cls-2" x="39.18" y="70.36" width="5.44" height="5.44"/><rect class="cls-4" x="39.18" y="75.8" width="5.44" height="5.44"/><rect class="cls-2" x="39.18" y="81.25" width="5.44" height="5.44"/><rect class="cls-4" x="39.18" y="86.69" width="5.44" height="5.44"/><rect class="cls-2" x="39.18" y="92.13" width="5.44" height="5.44"/><rect class="cls-4" x="39.18" y="97.57" width="5.44" height="5.44"/><rect class="cls-2" x="39.18" y="103.02" width="5.44" height="5.44"/><rect class="cls-4" x="44.63" y="70.36" width="5.44" height="5.44"/><rect class="cls-2" x="44.63" y="75.8" width="5.44" height="5.44"/><rect class="cls-4" x="44.63" y="81.25" width="5.44" height="5.44"/><rect class="cls-2" x="44.63" y="86.69" width="5.44" height="5.44"/><rect class="cls-4" x="44.63" y="92.13" width="5.44" height="5.44"/><rect class="cls-2" x="44.63" y="97.57" width="5.44" height="5.44"/><rect class="cls-4" x="44.63" y="103.02" width="5.44" height="5.44"/><rect class="cls-2" x="50.07" y="70.36" width="5.44" height="5.44"/><rect class="cls-4" x="50.07" y="75.8" width="5.44" height="5.44"/><rect class="cls-2" x="50.07" y="81.25" width="5.44" height="5.44"/><rect class="cls-4" x="50.07" y="86.69" width="5.44" height="5.44"/><rect class="cls-2" x="50.07" y="92.13" width="5.44" height="5.44"/><rect class="cls-4" x="50.07" y="97.57" width="5.44" height="5.44"/><rect class="cls-2" x="50.07" y="103.02" width="5.44" height="5.44"/><rect class="cls-4" x="55.51" y="70.36" width="5.44" height="5.44"/><rect class="cls-2" x="55.51" y="75.8" width="5.44" height="5.44"/><rect class="cls-4" x="55.51" y="81.25" width="5.44" height="5.44"/><rect class="cls-2" x="55.51" y="86.69" width="5.44" height="5.44"/><rect class="cls-4" x="55.51" y="92.13" width="5.44" height="5.44"/><rect class="cls-2" x="55.51" y="97.57" width="5.44" height="5.44"/><rect class="cls-4" x="55.51" y="103.02" width="5.44" height="5.44"/><rect class="cls-2" x="60.95" y="70.36" width="5.44" height="5.44"/><rect class="cls-4" x="60.95" y="75.8" width="5.44" height="5.44"/><rect class="cls-2" x="60.95" y="81.25" width="5.44" height="5.44"/><rect class="cls-4" x="60.95" y="86.69" width="5.44" height="5.44"/><rect class="cls-2" x="60.95" y="92.13" width="5.44" height="5.44"/><rect class="cls-4" x="60.95" y="97.57" width="5.44" height="5.44"/><rect class="cls-2" x="60.95" y="103.02" width="5.44" height="5.44"/><rect class="cls-4" x="66.4" y="70.36" width="5.44" height="5.44"/><rect class="cls-2" x="66.4" y="75.8" width="5.44" height="5.44"/><rect class="cls-4" x="66.4" y="81.25" width="5.44" height="5.44"/><rect class="cls-2" x="66.4" y="86.69" width="5.44" height="5.44"/><rect class="cls-4" x="66.4" y="92.13" width="5.44" height="5.44"/><rect class="cls-2" x="66.4" y="97.57" width="5.44" height="5.44"/><rect class="cls-4" x="66.4" y="103.02" width="5.44" height="5.44"/><rect class="cls-2" x="71.84" y="70.36" width="5.44" height="5.44"/><rect class="cls-4" x="71.84" y="75.8" width="5.44" height="5.44"/><rect class="cls-2" x="71.84" y="81.25" width="5.44" height="5.44"/><rect class="cls-4" x="71.84" y="86.69" width="5.44" height="5.44"/><rect class="cls-2" x="71.84" y="92.13" width="5.44" height="5.44"/><rect class="cls-4" x="71.84" y="97.57" width="5.44" height="5.44"/><rect class="cls-2" x="71.84" y="103.02" width="5.44" height="5.44"/></g></g></g></svg>