<svg xmlns="http://www.w3.org/2000/svg" viewBox="0 0 105.58 132.69"><defs><style>.cls-1{isolation:isolate;}.cls-2{fill:#abadb9;}.cls-3{fill:#f38594;}.cls-4{fill:#e6e7e8;}.cls-5{opacity:0.15;mix-blend-mode:multiply;}.cls-6{fill:#231f20;}.cls-7{fill:#f59ca5;}.cls-8{fill:#fff;}</style></defs><title>ICON_ppt</title><g class="cls-1"><g id="Layer_2" data-name="Layer 2"><g id="ÿ__1" data-name="ÿ‡_1"><path class="cls-2" d="M76.12,2.15H8a8,8,0,0,0-8,8V124.68a8,8,0,0,0,8,8H97.62a8,8,0,0,0,8-8V31.79Z"/><path class="cls-3" d="M105.58,49.55V29.46L76.12,0H8A8,8,0,0,0,0,8V49.55Z"/><path class="cls-4" d="M0,49.55v72.21a8,8,0,0,0,8,8H97.62a8,8,0,0,0,8-8V49.55Z"/><g class="cls-5"><path class="cls-6" d="M76.16,0,74.63,28a5.23,5.23,0,0,0,5.22,5.22l25.71-3.8v0Z"/></g><path class="cls-7" d="M76.16,0l0,24.23a5.23,5.23,0,0,0,5.22,5.22h24.23v0Z"/><path class="cls-8" d="M16.81,26.7v5H14.63V18.58h5.11a4.85,4.85,0,0,1,3.39,1.12,3.8,3.8,0,0,1,1.23,2.95,3.79,3.79,0,0,1-1.23,3,4.87,4.87,0,0,1-3.39,1.11Zm0-1.75h2.93a2.4,2.4,0,0,0,1.82-.65,2.3,2.3,0,0,0,.61-1.65,2.2,2.2,0,0,0-2.44-2.33H16.81Z"/><path class="cls-8" d="M28.52,26.7v5H26.34V18.58h5.11a4.85,4.85,0,0,1,3.39,1.12,3.79,3.79,0,0,1,1.23,2.95,3.79,3.79,0,0,1-1.23,3,4.87,4.87,0,0,1-3.39,1.11Zm0-1.75h2.93a2.4,2.4,0,0,0,1.82-.65,2.3,2.3,0,0,0,.61-1.65,2.2,2.2,0,0,0-2.44-2.33H28.52Z"/><path class="cls-8" d="M47,20.33H43V31.67H40.85V20.33h-4V18.58H47Z"/><rect class="cls-8" y="49.22" width="105.58" height="0.66"/><path class="cls-8" d="M57.46,88.16v-21H54.14v.07A22.65,22.65,0,1,0,78.38,91.47h.07V88.16Zm-1.66,21a19.33,19.33,0,0,1-1.66-38.58V91.47H75A19.35,19.35,0,0,1,55.8,109.15Z"/><path class="cls-8" d="M74.53,85h3.41A22.73,22.73,0,0,0,60.69,67.7v3.41A19.41,19.41,0,0,1,74.53,85Z"/><path class="cls-2" d="M57.46,87V66H54.14V66A22.65,22.65,0,1,0,78.38,90.28h.07V87ZM55.8,108a19.33,19.33,0,0,1-1.66-38.58V90.28H75A19.35,19.35,0,0,1,55.8,108Z"/><path class="cls-2" d="M74.53,83.82h3.41A22.73,22.73,0,0,0,60.69,66.51v3.41A19.41,19.41,0,0,1,74.53,83.82Z"/></g></g></g></svg>