<svg xmlns="http://www.w3.org/2000/svg" viewBox="0 0 105.58 132.69"><defs><style>.cls-1{isolation:isolate;}.cls-2{fill:#abadb9;}.cls-3{fill:#f27265;}.cls-4{fill:#e6e7e8;}.cls-5{opacity:0.15;mix-blend-mode:multiply;}.cls-6{fill:#231f20;}.cls-7{fill:#f58e7d;}.cls-8{fill:#fff;}</style></defs><title>ICON_pdf</title><g class="cls-1"><g id="Layer_2" data-name="Layer 2"><g id="ÿ__1" data-name="ÿ‡_1"><path class="cls-2" d="M76.12,2.15H8a8,8,0,0,0-8,8V124.68a8,8,0,0,0,8,8H97.62a8,8,0,0,0,8-8V31.79Z"/><path class="cls-3" d="M105.58,49.55V29.46L76.12,0H8A8,8,0,0,0,0,8V49.55Z"/><path class="cls-4" d="M0,49.55v72.21a8,8,0,0,0,8,8H97.62a8,8,0,0,0,8-8V49.55Z"/><g class="cls-5"><path class="cls-6" d="M76.16,0,74.63,28a5.23,5.23,0,0,0,5.22,5.22l25.71-3.8v0Z"/></g><path class="cls-7" d="M76.16,0l0,24.23a5.23,5.23,0,0,0,5.22,5.22h24.23v0Z"/><path class="cls-8" d="M16.81,26.71v5H14.63V18.58h5.11a4.85,4.85,0,0,1,3.39,1.12,3.8,3.8,0,0,1,1.23,2.94,3.79,3.79,0,0,1-1.23,3,4.87,4.87,0,0,1-3.39,1.11Zm0-1.75h2.93a2.39,2.39,0,0,0,1.82-.65,2.29,2.29,0,0,0,.61-1.64,2.2,2.2,0,0,0-2.44-2.33H16.81Z"/><path class="cls-8" d="M26.34,31.67V18.58h4.24a5.48,5.48,0,0,1,4,1.55,5.41,5.41,0,0,1,1.56,4v2a5.38,5.38,0,0,1-1.56,4,5.5,5.5,0,0,1-4,1.55Zm2.18-11.33v9.58h2a3.23,3.23,0,0,0,2.56-1.06A4,4,0,0,0,34,26.12v-2a4,4,0,0,0-.93-2.72,3.23,3.23,0,0,0-2.56-1.06Z"/><path class="cls-8" d="M46.17,26.09H40.43v5.58H38.25V18.58h8.83v1.75H40.43v4h5.73Z"/><rect class="cls-8" y="49.22" width="105.58" height="0.66"/><rect class="cls-8" x="47.29" y="71.55" width="33.28" height="3.31"/><rect class="cls-8" x="47.29" y="82.82" width="33.28" height="3.31"/><rect class="cls-8" x="25.01" y="94.09" width="55.56" height="3.31"/><rect class="cls-8" x="25.01" y="105.36" width="55.56" height="3.32"/><path class="cls-8" d="M39.48,86.13H24.7V71.55H39.48ZM28,82.82h8.16v-8H28Z"/><rect class="cls-2" x="47.29" y="70.36" width="33.28" height="3.31"/><rect class="cls-2" x="47.29" y="81.63" width="33.28" height="3.31"/><rect class="cls-2" x="25.01" y="92.9" width="55.56" height="3.31"/><rect class="cls-2" x="25.01" y="104.17" width="55.56" height="3.32"/><path class="cls-2" d="M39.48,84.95H24.7V70.36H39.48ZM28,81.63h8.16v-8H28Z"/></g></g></g></svg>