<svg xmlns="http://www.w3.org/2000/svg" viewBox="0 0 105.58 132.69"><defs><style>.cls-1{isolation:isolate;}.cls-2{fill:#abadb9;}.cls-3{fill:#63c3aa;}.cls-4{fill:#e6e7e8;}.cls-5{fill:#231f20;opacity:0.15;mix-blend-mode:multiply;}.cls-6{fill:#8dd0bd;}.cls-7{fill:#fff;}.cls-8{fill:none;stroke:#fff;stroke-miterlimit:10;stroke-width:0.66px;}</style></defs><title>ICON_css</title><g class="cls-1"><g id="Layer_2" data-name="Layer 2"><g id="ÿ__1" data-name="ÿ‡_1"><path class="cls-2" d="M76.12,2.15H8a8,8,0,0,0-8,8V124.68a8,8,0,0,0,8,8H97.62a8,8,0,0,0,8-8V31.79Z"/><path class="cls-3" d="M76.12,0H8A8,8,0,0,0,0,8v113.8a8,8,0,0,0,8,8H97.62a8,8,0,0,0,8-8V29.46Z"/><path class="cls-4" d="M0,49.55v72.21a8,8,0,0,0,8,8H97.62a8,8,0,0,0,8-8V49.55Z"/><path class="cls-5" d="M76.16,0,74.63,28a5.23,5.23,0,0,0,5.22,5.22l25.71-3.8v0Z"/><path class="cls-6" d="M76.16,0l0,24.23a5.23,5.23,0,0,0,5.22,5.22h24.23v0Z"/><path class="cls-7" d="M24.17,27.32l0,.06a4.12,4.12,0,0,1-1.29,3.23,5,5,0,0,1-3.59,1.25,4.85,4.85,0,0,1-3.72-1.54,5.55,5.55,0,0,1-1.43-3.94V23.88a5.62,5.62,0,0,1,1.41-3.94,4.76,4.76,0,0,1,3.68-1.55,5.21,5.21,0,0,1,3.65,1.22,4.11,4.11,0,0,1,1.3,3.28l0,.05H22.07a2.83,2.83,0,0,0-.71-2.06,2.81,2.81,0,0,0-2.11-.74,2.51,2.51,0,0,0-2.12,1.06,4.34,4.34,0,0,0-.79,2.66v2.51a4.3,4.3,0,0,0,.8,2.68,2.58,2.58,0,0,0,2.17,1.06,2.74,2.74,0,0,0,2.06-.72,2.83,2.83,0,0,0,.7-2.05Z"/><path class="cls-7" d="M33.24,28.29A1.68,1.68,0,0,0,32.63,27,5.72,5.72,0,0,0,30.49,26a9.08,9.08,0,0,1-3.37-1.52A3,3,0,0,1,25.93,22a3.18,3.18,0,0,1,1.31-2.61,5.31,5.31,0,0,1,3.37-1,5,5,0,0,1,3.46,1.17,3.48,3.48,0,0,1,1.26,2.79l0,.05h-2.1a2.11,2.11,0,0,0-.68-1.63,2.78,2.78,0,0,0-1.95-.62,2.85,2.85,0,0,0-1.84.52A1.65,1.65,0,0,0,28.12,22a1.47,1.47,0,0,0,.7,1.24,7.73,7.73,0,0,0,2.31.93,7.68,7.68,0,0,1,3.21,1.56,3.29,3.29,0,0,1,1.1,2.54,3.07,3.07,0,0,1-1.31,2.6,5.64,5.64,0,0,1-3.44,1,6.06,6.06,0,0,1-3.59-1.09,3.35,3.35,0,0,1-1.5-3l0-.05h2.1a2,2,0,0,0,.83,1.78,3.62,3.62,0,0,0,2.15.59,3.17,3.17,0,0,0,1.89-.49A1.54,1.54,0,0,0,33.24,28.29Z"/><path class="cls-7" d="M44.63,28.29A1.67,1.67,0,0,0,44,27,5.72,5.72,0,0,0,41.88,26a9.06,9.06,0,0,1-3.37-1.52A3,3,0,0,1,37.32,22a3.18,3.18,0,0,1,1.31-2.61,5.31,5.31,0,0,1,3.37-1,5,5,0,0,1,3.46,1.17,3.47,3.47,0,0,1,1.26,2.79l0,.05h-2.1a2.1,2.1,0,0,0-.68-1.63,2.79,2.79,0,0,0-2-.62,2.85,2.85,0,0,0-1.84.52A1.65,1.65,0,0,0,39.51,22a1.47,1.47,0,0,0,.7,1.24,7.73,7.73,0,0,0,2.31.93,7.68,7.68,0,0,1,3.21,1.56,3.29,3.29,0,0,1,1.1,2.54,3.07,3.07,0,0,1-1.31,2.6,5.64,5.64,0,0,1-3.44,1,6.08,6.08,0,0,1-3.6-1.09,3.35,3.35,0,0,1-1.5-3l0-.05h2.1a2,2,0,0,0,.83,1.78,3.61,3.61,0,0,0,2.15.59A3.18,3.18,0,0,0,44,29.62,1.55,1.55,0,0,0,44.63,28.29Z"/><line class="cls-8" y1="49.55" x2="105.58" y2="49.55"/><path class="cls-7" d="M38.57,78.32v4.75a5.22,5.22,0,0,1-4.87,5.28v2.87a5.22,5.22,0,0,1,4.87,5.28v4.75c0,4.77,2.6,7,8.41,7.25v-2.74c-3.2-.38-5.14-2.25-5.14-5V96.47c0-2.94-1.07-4.9-3.18-5.83l-2-.86,2-.86C40.77,88,41.84,86,41.84,83.1V78.83c0-2.77,1.95-4.64,5.14-5V71.07C41.18,71.29,38.57,73.55,38.57,78.32Z"/><path class="cls-7" d="M66.44,83.07V78.32c0-4.77-2.61-7-8.41-7.25v2.74c3.2.38,5.14,2.25,5.14,5V83.1c0,2.94,1.07,4.9,3.19,5.83l2,.86-2,.86c-2.11.93-3.19,2.89-3.19,5.83v4.27c0,2.77-1.95,4.64-5.14,5v2.74c5.81-.21,8.41-2.47,8.41-7.25V96.49a5.22,5.22,0,0,1,4.87-5.28V88.35A5.21,5.21,0,0,1,66.44,83.07Z"/><path class="cls-2" d="M38.57,77.13v4.75a5.22,5.22,0,0,1-4.87,5.28V90a5.22,5.22,0,0,1,4.87,5.28v4.75c0,4.77,2.6,7,8.41,7.25v-2.74c-3.2-.38-5.14-2.25-5.14-5V95.28c0-2.94-1.07-4.9-3.18-5.83l-2-.86,2-.86c2.11-.93,3.18-2.89,3.18-5.83V77.64c0-2.77,1.95-4.64,5.14-5V69.88C41.18,70.1,38.57,72.36,38.57,77.13Z"/><path class="cls-2" d="M66.44,81.88V77.13c0-4.77-2.61-7-8.41-7.25v2.74c3.2.38,5.14,2.25,5.14,5v4.27c0,2.94,1.07,4.9,3.19,5.83l2,.86-2,.86c-2.11.93-3.19,2.89-3.19,5.83v4.27c0,2.77-1.95,4.64-5.14,5v2.74c5.81-.21,8.41-2.47,8.41-7.25V95.31A5.22,5.22,0,0,1,71.31,90V87.16A5.21,5.21,0,0,1,66.44,81.88Z"/></g></g></g></svg>