<svg xmlns="http://www.w3.org/2000/svg" viewBox="0 0 105.63 132.75"><defs><style>.cls-1{isolation:isolate;}.cls-2{fill:#abadb9;}.cls-3{fill:#f9a557;}.cls-4{fill:#e6e7e8;}.cls-5{fill:#231f20;opacity:0.15;mix-blend-mode:multiply;}.cls-6{fill:#fbb675;}.cls-7{fill:#fff;}.cls-8{fill:none;stroke:#fff;stroke-miterlimit:10;stroke-width:0.66px;}</style></defs><title>ICON_zip</title><g class="cls-1"><g id="Layer_2" data-name="Layer 2"><g id="ÿ__1" data-name="ÿ‡_1"><path class="cls-2" d="M76.16,2.15H8a8,8,0,0,0-8,8V124.74a8,8,0,0,0,8,8h89.7a8,8,0,0,0,8-8V31.81Z"/><path class="cls-3" d="M105.63,49.57V29.47L76.16,0H8A8,8,0,0,0,0,8V49.57Z"/><path class="cls-4" d="M0,49.57v72.25a8,8,0,0,0,8,8h89.7a8,8,0,0,0,8-8V49.57Z"/><path class="cls-5" d="M76.19,0,74.67,28a5.24,5.24,0,0,0,5.22,5.22l25.72-3.8v0Z"/><path class="cls-6" d="M76.19,0l0,24.24a5.24,5.24,0,0,0,5.22,5.22h24.24v0Z"/><path class="cls-7" d="M16.6,29.93h6.83v1.75H14V30.31l6.57-10H14.05V18.59h9.15V19.9Z"/><path class="cls-7" d="M27.7,31.68H25.51V18.59H27.7Z"/><path class="cls-7" d="M32.68,26.72v5H30.5V18.59h5.12A4.85,4.85,0,0,1,39,19.71a3.8,3.8,0,0,1,1.23,2.95,3.79,3.79,0,0,1-1.23,3,4.87,4.87,0,0,1-3.39,1.11Zm0-1.75h2.93a2.4,2.4,0,0,0,1.83-.65,2.3,2.3,0,0,0,.61-1.65,2.21,2.21,0,0,0-2.44-2.33H32.68Z"/><line class="cls-8" y1="49.57" x2="105.63" y2="49.57"/><rect class="cls-7" x="52.53" y="68.65" width="3.32" height="13.58"/><rect class="cls-7" x="44.13" y="68.65" width="3.32" height="13.58"/><rect class="cls-7" x="35.73" y="68.65" width="3.32" height="13.58"/><rect class="cls-7" x="27.33" y="68.65" width="3.32" height="13.58"/><path class="cls-7" d="M74.85,68.65H61.27V82.22H74.85ZM71.53,78.91H64.58V72h6.95Z"/><path class="cls-7" d="M78.27,102.39l-3.9-16.81v-.31H61.82l-4,17.11,0,.44a10.25,10.25,0,1,0,20.51,0ZM68.06,110a7.18,7.18,0,0,1-7.17-7.17h0l3.4-14.65h7.52l3.4,14.65h0A7.18,7.18,0,0,1,68.06,110Z"/><circle class="cls-7" cx="68.06" cy="103.57" r="3.23"/><rect class="cls-2" x="52.53" y="67.46" width="3.32" height="13.58"/><rect class="cls-2" x="44.13" y="67.46" width="3.32" height="13.58"/><rect class="cls-2" x="35.73" y="67.46" width="3.32" height="13.58"/><rect class="cls-2" x="27.33" y="67.46" width="3.32" height="13.58"/><path class="cls-2" d="M74.85,67.46H61.27V81H74.85ZM71.53,77.72H64.58V70.77h6.95Z"/><path class="cls-2" d="M78.27,101.2,74.37,84.4v-.31H61.82l-4,17.11,0,.44a10.25,10.25,0,1,0,20.51,0Zm-10.21,7.61a7.18,7.18,0,0,1-7.17-7.17h0L64.3,87h7.52l3.4,14.65h0A7.18,7.18,0,0,1,68.06,108.81Z"/><circle class="cls-2" cx="68.06" cy="102.38" r="3.23"/></g></g></g></svg>