<svg xmlns="http://www.w3.org/2000/svg" viewBox="0 0 105.59 132.69"><defs><style>.cls-1{isolation:isolate;}.cls-2{fill:#abadb9;}.cls-3{fill:#458abe;}.cls-4{fill:#e6e7e8;}.cls-5{opacity:0.15;mix-blend-mode:multiply;}.cls-6{fill:#231f20;}.cls-7{fill:#709dca;}.cls-8{fill:#fff;}</style></defs><title>ICON_doc</title><g class="cls-1"><g id="Layer_2" data-name="Layer 2"><g id="ÿ__1" data-name="ÿ‡_1"><path class="cls-2" d="M76.12,2.15H8a8,8,0,0,0-8,8V124.68a8,8,0,0,0,8,8H97.62a8,8,0,0,0,8-8V31.79Z"/><path class="cls-3" d="M105.58,49.54V29.46L76.12,0H8A8,8,0,0,0,0,8V49.54Z"/><path class="cls-4" d="M0,49.54v72.21a8,8,0,0,0,8,8H97.63a8,8,0,0,0,8-8V49.54Z"/><g class="cls-5"><path class="cls-6" d="M76.16,0,74.63,28a5.23,5.23,0,0,0,5.22,5.22l25.71-3.8v0Z"/></g><path class="cls-7" d="M76.16,0l0,24.23a5.23,5.23,0,0,0,5.22,5.22h24.23v0Z"/><path class="cls-8" d="M14.63,31.67V18.58h4.24a5.49,5.49,0,0,1,4,1.55,5.41,5.41,0,0,1,1.56,4v2a5.38,5.38,0,0,1-1.56,4,5.5,5.5,0,0,1-4,1.55Zm2.18-11.33v9.58h2a3.23,3.23,0,0,0,2.56-1.06,4,4,0,0,0,.93-2.74v-2a4,4,0,0,0-.93-2.72,3.23,3.23,0,0,0-2.56-1.06Z"/><path class="cls-8" d="M36.74,26.3a5.53,5.53,0,0,1-1.51,4,5.15,5.15,0,0,1-3.91,1.58,5,5,0,0,1-3.82-1.58,5.6,5.6,0,0,1-1.47-4V23.94a5.6,5.6,0,0,1,1.47-4,5,5,0,0,1,3.82-1.58A5.17,5.17,0,0,1,35.23,20a5.52,5.52,0,0,1,1.51,4Zm-2.17-2.37a4,4,0,0,0-.88-2.69,2.92,2.92,0,0,0-2.37-1.05A2.75,2.75,0,0,0,29,21.24a4.18,4.18,0,0,0-.84,2.69V26.3A4.23,4.23,0,0,0,29,29a2.76,2.76,0,0,0,2.28,1.05A2.91,2.91,0,0,0,33.7,29a4.12,4.12,0,0,0,.87-2.71Z"/><path class="cls-8" d="M48.47,27.32l0,.05a4.12,4.12,0,0,1-1.29,3.23,5,5,0,0,1-3.59,1.24,4.85,4.85,0,0,1-3.73-1.54,5.56,5.56,0,0,1-1.43-3.94V23.88a5.62,5.62,0,0,1,1.42-3.94,4.75,4.75,0,0,1,3.68-1.55,5.23,5.23,0,0,1,3.65,1.22,4.12,4.12,0,0,1,1.3,3.28l0,.05H46.37a2.53,2.53,0,0,0-2.82-2.79,2.51,2.51,0,0,0-2.12,1.06,4.34,4.34,0,0,0-.79,2.66v2.51a4.3,4.3,0,0,0,.8,2.68,2.58,2.58,0,0,0,2.17,1.06,2.73,2.73,0,0,0,2.06-.73,2.82,2.82,0,0,0,.7-2.05Z"/><rect class="cls-8" y="49.21" width="105.58" height="0.66"/><rect class="cls-8" x="25.02" y="71.55" width="55.56" height="3.31"/><rect class="cls-8" x="25.02" y="82.82" width="55.56" height="3.31"/><rect class="cls-8" x="25.02" y="94.09" width="55.56" height="3.31"/><rect class="cls-8" x="25.02" y="105.36" width="34.26" height="3.32"/><rect class="cls-2" x="25.02" y="70.36" width="55.56" height="3.31"/><rect class="cls-2" x="25.02" y="81.63" width="55.56" height="3.31"/><rect class="cls-2" x="25.02" y="92.9" width="55.56" height="3.31"/><rect class="cls-2" x="25.02" y="104.17" width="34.26" height="3.32"/></g></g></g></svg>