<svg xmlns="http://www.w3.org/2000/svg" viewBox="0 0 105.63 132.75"><defs><style>.cls-1{isolation:isolate;}.cls-2{fill:#abadb9;}.cls-3{fill:#8a73b4;}.cls-4{fill:#e6e7e8;}.cls-5{fill:#231f20;opacity:0.15;mix-blend-mode:multiply;}.cls-6{fill:#9c88c0;}.cls-7{fill:#fff;}.cls-8{fill:none;stroke:#fff;stroke-miterlimit:10;stroke-width:0.66px;}</style></defs><title>ICON_avi</title><g class="cls-1"><g id="Layer_2" data-name="Layer 2"><g id="ÿ__1" data-name="ÿ‡_1"><path class="cls-2" d="M76.15,2.15H8a8,8,0,0,0-8,8V124.74a8,8,0,0,0,8,8h89.7a8,8,0,0,0,8-8V31.81Z"/><path class="cls-3" d="M105.63,49.57V29.47L76.15,0H8A8,8,0,0,0,0,8V49.57Z"/><path class="cls-4" d="M0,49.57v72.25a8,8,0,0,0,8,8h89.7a8,8,0,0,0,8-8V49.57Z"/><path class="cls-5" d="M76.19,0,74.67,28a5.23,5.23,0,0,0,5.22,5.22l25.72-3.8v0Z"/><path class="cls-6" d="M76.19,0l0,24.24a5.24,5.24,0,0,0,5.22,5.22h24.24v0Z"/><path class="cls-7" d="M21.73,28.63H16.61l-1,3.06H13.35l4.81-13.09h2.07L25,31.68H22.76Zm-4.5-1.83h3.87l-1.9-5.59h-.05Z"/><path class="cls-7" d="M30.47,28.26l.23.91h.06l.22-.89,3.13-9.68h2.33L31.77,31.68H29.69L25,18.59h2.33Z"/><path class="cls-7" d="M40.14,31.68H38V18.59h2.18Z"/><line class="cls-8" y1="49.57" x2="105.63" y2="49.57"/><path class="cls-7" d="M63.86,85.15V93.6L79.4,103V75.73ZM76.74,98.31l-10.23-6.2V86.64l10.23-6.2Z"/><path class="cls-7" d="M56.81,76.27H31.25a5,5,0,0,0-5,5V97.46a5,5,0,0,0,5,5H56.81a5,5,0,0,0,5-5V81.29A5,5,0,0,0,56.81,76.27Zm1.7,21.19a1.7,1.7,0,0,1-1.7,1.7H31.25a1.7,1.7,0,0,1-1.7-1.7V81.29a1.7,1.7,0,0,1,1.7-1.7H56.81a1.7,1.7,0,0,1,1.7,1.7Z"/><path class="cls-2" d="M63.86,84v8.45l15.54,9.42V74.55ZM76.74,97.12l-10.23-6.2V85.46l10.23-6.2Z"/><path class="cls-2" d="M56.81,75.08H31.25a5,5,0,0,0-5,5V96.27a5,5,0,0,0,5,5H56.81a5,5,0,0,0,5-5V80.1A5,5,0,0,0,56.81,75.08Zm1.7,21.19a1.7,1.7,0,0,1-1.7,1.7H31.25a1.7,1.7,0,0,1-1.7-1.7V80.1a1.7,1.7,0,0,1,1.7-1.7H56.81a1.7,1.7,0,0,1,1.7,1.7Z"/></g></g></g></svg>