<svg xmlns="http://www.w3.org/2000/svg" viewBox="0 0 105.59 132.69"><defs><style>.cls-1{isolation:isolate;}.cls-2{fill:#abadb9;}.cls-3{fill:#7ac470;}.cls-4{fill:#e6e7e8;}.cls-5{opacity:0.15;mix-blend-mode:multiply;}.cls-6{fill:#231f20;}.cls-7{fill:#95cd8b;}.cls-8{fill:#fff;}</style></defs><title>ICON_xls</title><g class="cls-1"><g id="Layer_2" data-name="Layer 2"><g id="ÿ__1" data-name="ÿ‡_1"><path class="cls-2" d="M76.12,2.15H8a8,8,0,0,0-8,8V124.68a8,8,0,0,0,8,8H97.62a8,8,0,0,0,8-8V31.79Z"/><path class="cls-3" d="M105.58,49.55V29.46L76.12,0H8A8,8,0,0,0,0,8V49.55Z"/><path class="cls-4" d="M0,49.55v72.21a8,8,0,0,0,8,8H97.63a8,8,0,0,0,8-8V49.55Z"/><g class="cls-5"><path class="cls-6" d="M76.16,0,74.63,28a5.23,5.23,0,0,0,5.22,5.22l25.71-3.8v0Z"/></g><path class="cls-7" d="M76.16,0l0,24.23a5.24,5.24,0,0,0,5.22,5.22h24.23v0Z"/><path class="cls-8" d="M19,23.41l2.76-4.84h2.59l-4,6.49,4.18,6.6H21.92l-2.84-4.92-2.84,4.92H13.65l4.12-6.6-4-6.49h2.57Z"/><path class="cls-8" d="M28.31,29.91h6v1.75h-8.2V18.58h2.18Z"/><path class="cls-8" d="M43,28.29A1.68,1.68,0,0,0,42.39,27,5.72,5.72,0,0,0,40.25,26a9.07,9.07,0,0,1-3.37-1.52A3,3,0,0,1,35.69,22,3.17,3.17,0,0,1,37,19.42a5.3,5.3,0,0,1,3.37-1,5,5,0,0,1,3.46,1.16,3.47,3.47,0,0,1,1.26,2.79l0,.05H43a2.11,2.11,0,0,0-.68-1.63,2.79,2.79,0,0,0-2-.62,2.85,2.85,0,0,0-1.84.52A1.65,1.65,0,0,0,37.87,22a1.47,1.47,0,0,0,.7,1.24,7.67,7.67,0,0,0,2.31.93,7.69,7.69,0,0,1,3.21,1.56,3.29,3.29,0,0,1,1.1,2.54,3.07,3.07,0,0,1-1.31,2.6,5.65,5.65,0,0,1-3.44,1,6.07,6.07,0,0,1-3.6-1.09,3.35,3.35,0,0,1-1.5-3l0-.05h2.1a2,2,0,0,0,.83,1.79,3.62,3.62,0,0,0,2.15.59,3.18,3.18,0,0,0,1.89-.49A1.55,1.55,0,0,0,43,28.29Z"/><rect class="cls-8" y="49.21" width="105.58" height="0.66"/><path class="cls-8" d="M42.21,71.55H25v38.53H80.58V71.55ZM28.33,74.87H38.9v7.66H28.33Zm0,11H38.9v9.5H28.33Zm0,12.82H38.9v8.11H28.33Zm48.93,8.11H42.21V98.66H77.27Zm0-11.42H42.21v-9.5H77.27ZM42.21,82.53V74.87H77.27v7.66Z"/><path class="cls-2" d="M42.21,70.37H25v38.53H80.58V70.37ZM28.33,73.68H38.9v7.66H28.33Zm0,11H38.9v9.5H28.33Zm0,12.82H38.9v8.11H28.33Zm48.93,8.11H42.21V97.47H77.27Zm0-11.42H42.21v-9.5H77.27ZM42.21,81.34V73.68H77.27v7.66Z"/></g></g></g></svg>