<svg xmlns="http://www.w3.org/2000/svg" viewBox="0 0 105.58 132.69"><defs><style>.cls-1{isolation:isolate;}.cls-2{fill:#abadb9;}.cls-3{fill:#7ac470;}.cls-4{fill:#e6e7e8;}.cls-5{fill:#231f20;opacity:0.15;mix-blend-mode:multiply;}.cls-6{fill:#95cd8b;}.cls-7{fill:#fff;}.cls-8{fill:none;stroke:#fff;stroke-miterlimit:10;stroke-width:0.66px;}</style></defs><title>ICON_js</title><g class="cls-1"><g id="Layer_2" data-name="Layer 2"><g id="ÿ__1" data-name="ÿ‡_1"><path class="cls-2" d="M76.12,2.15H8a8,8,0,0,0-8,8V124.68a8,8,0,0,0,8,8H97.62a8,8,0,0,0,8-8V31.79Z"/><path class="cls-3" d="M76.12,0H8A8,8,0,0,0,0,8v113.8a8,8,0,0,0,8,8H97.62a8,8,0,0,0,8-8V29.46Z"/><path class="cls-4" d="M0,49.55v72.21a8,8,0,0,0,8,8H97.62a8,8,0,0,0,8-8V49.55Z"/><path class="cls-5" d="M76.16,0,74.63,28a5.23,5.23,0,0,0,5.22,5.22l25.71-3.8v0Z"/><path class="cls-6" d="M76.16,0l0,24.23a5.23,5.23,0,0,0,5.22,5.22h24.23v0Z"/><path class="cls-7" d="M20,18.58h2.18v9.3A3.74,3.74,0,0,1,21,30.79a4.27,4.27,0,0,1-3,1.07,4.65,4.65,0,0,1-3.12-1A3.44,3.44,0,0,1,13.78,28l0-.05H15.9A1.89,1.89,0,0,0,18,30.1a1.86,1.86,0,0,0,1.42-.6A2.29,2.29,0,0,0,20,27.87Z"/><path class="cls-7" d="M31.86,28.29A1.67,1.67,0,0,0,31.25,27,5.72,5.72,0,0,0,29.11,26a9.09,9.09,0,0,1-3.38-1.52A3,3,0,0,1,24.55,22a3.18,3.18,0,0,1,1.31-2.61,5.31,5.31,0,0,1,3.37-1,5,5,0,0,1,3.46,1.17A3.46,3.46,0,0,1,34,22.35l0,.05H31.85a2.11,2.11,0,0,0-.68-1.63,2.79,2.79,0,0,0-2-.62,2.86,2.86,0,0,0-1.84.52A1.65,1.65,0,0,0,26.73,22a1.47,1.47,0,0,0,.7,1.24,7.76,7.76,0,0,0,2.31.93,7.67,7.67,0,0,1,3.21,1.56A3.28,3.28,0,0,1,34,28.29a3.07,3.07,0,0,1-1.31,2.6,5.64,5.64,0,0,1-3.44,1,6.09,6.09,0,0,1-3.6-1.09,3.36,3.36,0,0,1-1.5-3l0-.05h2.1a2,2,0,0,0,.83,1.78,3.62,3.62,0,0,0,2.15.59,3.16,3.16,0,0,0,1.89-.49A1.54,1.54,0,0,0,31.86,28.29Z"/><line class="cls-8" y1="49.55" x2="105.58" y2="49.55"/><path class="cls-7" d="M45.17,108.5c-5.81-.21-8.41-2.47-8.41-7.25V96.5a5.21,5.21,0,0,0-4.87-5.28V88.35a5.22,5.22,0,0,0,4.87-5.28V78.32c0-4.77,2.6-7,8.41-7.25v2.74c-3.2.38-5.15,2.25-5.15,5V83.1C40,86,39,88,36.84,88.92l-2,.86,2,.86C39,91.57,40,93.53,40,96.47v4.27c0,2.77,1.95,4.64,5.15,5Zm15.24-2.74c3.2-.38,5.15-2.25,5.15-5V96.47c0-2.94,1.07-4.9,3.18-5.83l2-.86-2-.86C66.62,88,65.55,86,65.55,83.1V78.83c0-2.77-1.95-4.64-5.15-5V71.07c5.81.21,8.41,2.47,8.41,7.25v4.75a5.21,5.21,0,0,0,4.87,5.28v2.87a5.21,5.21,0,0,0-4.87,5.28v4.75c0,4.77-2.61,7-8.41,7.25ZM52,101.15a5.34,5.34,0,0,0,1.55-3.59v-.94H51.1V92.74h4.16v2.92A5.91,5.91,0,0,1,52,101.15ZM51.1,84.5V80.33h4.16V84.5Z"/><path class="cls-2" d="M45.17,107.31c-5.81-.21-8.41-2.47-8.41-7.25V95.31A5.21,5.21,0,0,0,31.88,90V87.16a5.22,5.22,0,0,0,4.87-5.28V77.13c0-4.77,2.6-7,8.41-7.25v2.74C42,73,40,74.87,40,77.64v4.27c0,2.94-1.07,4.9-3.18,5.83l-2,.86,2,.86C39,90.38,40,92.34,40,95.29v4.27c0,2.77,1.95,4.64,5.15,5Zm15.24-2.74c3.2-.38,5.15-2.25,5.15-5V95.29c0-2.94,1.07-4.9,3.18-5.83l2-.86-2-.86c-2.11-.93-3.18-2.89-3.18-5.83V77.64c0-2.77-1.95-4.64-5.15-5V69.89c5.81.21,8.41,2.47,8.41,7.25v4.75a5.21,5.21,0,0,0,4.87,5.28V90a5.21,5.21,0,0,0-4.87,5.28v4.75c0,4.77-2.61,7-8.41,7.25ZM52,100a5.34,5.34,0,0,0,1.55-3.59v-.94H51.1V91.55h4.16v2.92A5.91,5.91,0,0,1,52,100ZM51.1,83.31V79.14h4.16v4.17Z"/></g></g></g></svg>