<svg xmlns="http://www.w3.org/2000/svg" viewBox="0 0 105.58 132.69"><defs><style>.cls-1{isolation:isolate;}.cls-2{fill:#abadb9;}.cls-3{fill:#458abe;}.cls-4{fill:#e6e7e8;}.cls-5{fill:#231f20;opacity:0.15;mix-blend-mode:multiply;}.cls-6{fill:#709dca;}.cls-7{fill:#fff;}.cls-8{fill:none;stroke:#fff;stroke-miterlimit:10;stroke-width:0.66px;}</style></defs><title>ICON_psd</title><g class="cls-1"><g id="Layer_2" data-name="Layer 2"><g id="ÿ__1" data-name="ÿ‡_1"><path class="cls-2" d="M76.12,2.15H8a8,8,0,0,0-8,8V124.68a8,8,0,0,0,8,8H97.62a8,8,0,0,0,8-8V31.79Z"/><path class="cls-3" d="M105.58,49.55V29.46L76.12,0H8A8,8,0,0,0,0,8V49.55Z"/><path class="cls-4" d="M0,49.55v72.21a8,8,0,0,0,8,8H97.62a8,8,0,0,0,8-8V49.55Z"/><path class="cls-5" d="M76.16,0,74.63,28a5.23,5.23,0,0,0,5.22,5.22l25.71-3.8v0Z"/><path class="cls-6" d="M76.16,0l0,24.23a5.23,5.23,0,0,0,5.22,5.22h24.23v0Z"/><path class="cls-7" d="M16.81,26.71v5H14.63V18.58h5.11a4.85,4.85,0,0,1,3.39,1.12,3.79,3.79,0,0,1,1.23,2.94,3.79,3.79,0,0,1-1.23,3,4.88,4.88,0,0,1-3.39,1.11Zm0-1.75h2.93a2.39,2.39,0,0,0,1.83-.65,2.3,2.3,0,0,0,.61-1.64,2.21,2.21,0,0,0-2.44-2.33H16.81Z"/><path class="cls-7" d="M33.43,28.29A1.68,1.68,0,0,0,32.82,27,5.73,5.73,0,0,0,30.68,26a9.06,9.06,0,0,1-3.37-1.52A3,3,0,0,1,26.12,22a3.17,3.17,0,0,1,1.31-2.61,5.31,5.31,0,0,1,3.37-1,5,5,0,0,1,3.46,1.17,3.47,3.47,0,0,1,1.26,2.79l0,.05H33.42a2.11,2.11,0,0,0-.68-1.63,2.79,2.79,0,0,0-2-.62,2.86,2.86,0,0,0-1.84.52A1.65,1.65,0,0,0,28.31,22a1.47,1.47,0,0,0,.7,1.24,7.71,7.71,0,0,0,2.3.93,7.69,7.69,0,0,1,3.21,1.57,3.28,3.28,0,0,1,1.1,2.54,3.07,3.07,0,0,1-1.31,2.6,5.65,5.65,0,0,1-3.44,1,6.08,6.08,0,0,1-3.59-1.09,3.36,3.36,0,0,1-1.5-3l0-.05h2.1a2,2,0,0,0,.83,1.78,3.63,3.63,0,0,0,2.15.59,3.18,3.18,0,0,0,1.89-.49A1.54,1.54,0,0,0,33.43,28.29Z"/><path class="cls-7" d="M37.73,31.67V18.58H42a5.48,5.48,0,0,1,4,1.55,5.4,5.4,0,0,1,1.56,4v2a5.38,5.38,0,0,1-1.56,4,5.5,5.5,0,0,1-4,1.55Zm2.18-11.33v9.58h2a3.23,3.23,0,0,0,2.56-1.06,4,4,0,0,0,.93-2.74v-2a4,4,0,0,0-.93-2.72,3.23,3.23,0,0,0-2.56-1.06Z"/><line class="cls-8" y1="49.55" x2="105.58" y2="49.55"/><path class="cls-7" d="M47.43,79.11v20.1H29V73.38H54.84V75.6h3.31V70.06H25.69v32.46H47.43v9H79.89V79.11Zm29.15,29.15H50.74v-5.73h7.41V86H54.84V99.21H50.74V82.43H76.57Z"/><path class="cls-2" d="M47.43,77.93V98H29V72.19H54.84v2.22h3.31V68.88H25.69v32.46H47.43v9H79.89V77.93Zm29.15,29.15H50.74v-5.73h7.41V84.76H54.84V98H50.74V81.24H76.57Z"/></g></g></g></svg>