<svg xmlns="http://www.w3.org/2000/svg" viewBox="0 0 105.58 132.69"><defs><style>.cls-1{isolation:isolate;}.cls-2{fill:#abadb9;}.cls-3{fill:#92bbd5;}.cls-4{fill:#e6e7e8;}.cls-5{fill:#231f20;opacity:0.15;mix-blend-mode:multiply;}.cls-6{fill:#a7c6dc;}.cls-7{fill:#fff;}.cls-8{fill:none;stroke:#fff;stroke-miterlimit:10;stroke-width:0.66px;}</style></defs><title>ICON_jpg</title><g class="cls-1"><g id="Layer_2" data-name="Layer 2"><g id="ÿ__1" data-name="ÿ‡_1"><path class="cls-2" d="M76.12,2.15H8a8,8,0,0,0-8,8V124.68a8,8,0,0,0,8,8H97.62a8,8,0,0,0,8-8V31.79Z"/><path class="cls-3" d="M105.58,49.55V29.46L76.12,0H8A8,8,0,0,0,0,8V49.55Z"/><path class="cls-4" d="M0,49.55v72.21a8,8,0,0,0,8,8H97.63a8,8,0,0,0,8-8V49.55Z"/><path class="cls-5" d="M76.16,0,74.63,28a5.23,5.23,0,0,0,5.22,5.22l25.71-3.8v0Z"/><path class="cls-6" d="M76.16,0l0,24.23a5.23,5.23,0,0,0,5.22,5.22h24.23v0Z"/><path class="cls-7" d="M20,18.58h2.18v9.3A3.74,3.74,0,0,1,21,30.79a4.27,4.27,0,0,1-3,1.07,4.65,4.65,0,0,1-3.12-1A3.44,3.44,0,0,1,13.77,28l0-.05H15.9A1.89,1.89,0,0,0,18,30.1a1.86,1.86,0,0,0,1.42-.6A2.29,2.29,0,0,0,20,27.87Z"/><path class="cls-7" d="M26.95,26.71v5H24.76V18.58h5.11a4.85,4.85,0,0,1,3.39,1.12,3.79,3.79,0,0,1,1.23,2.94,3.79,3.79,0,0,1-1.23,3,4.87,4.87,0,0,1-3.39,1.11Zm0-1.75h2.93a2.39,2.39,0,0,0,1.82-.65,2.3,2.3,0,0,0,.61-1.64,2.21,2.21,0,0,0-2.44-2.33H26.95Z"/><path class="cls-7" d="M46.22,29.9a4.57,4.57,0,0,1-1.71,1.35,6.74,6.74,0,0,1-3.06.61,5.33,5.33,0,0,1-3.89-1.5A5.18,5.18,0,0,1,36,26.49V23.76a5.35,5.35,0,0,1,1.44-3.87,4.94,4.94,0,0,1,3.73-1.5,5.23,5.23,0,0,1,3.59,1.14,3.85,3.85,0,0,1,1.31,3l0,.06H44a2.54,2.54,0,0,0-.77-1.74,2.83,2.83,0,0,0-2-.66,2.69,2.69,0,0,0-2.19,1,3.93,3.93,0,0,0-.83,2.58v2.75a3.77,3.77,0,0,0,.9,2.6,3,3,0,0,0,2.34,1,4.84,4.84,0,0,0,1.66-.24A2.29,2.29,0,0,0,44,29.3V26.65h-2.6V25h4.78Z"/><line class="cls-8" y1="49.55" x2="105.58" y2="49.55"/><path class="cls-7" d="M25.41,71.55v38.1h54.2V71.55Zm50.88,3.32v27.68l-13.19-20-14,14.68L42,89.67l-13.3,14.39V74.86Zm-1.48,31.47H31.15L42.06,94.52,49.14,102,62.63,87.81Z"/><circle class="cls-7" cx="36.37" cy="82.05" r="3.82"/><path class="cls-2" d="M25.41,70.36v38.1h54.2V70.36Zm50.88,3.32v27.68l-13.19-20L49.14,96,42,88.49l-13.3,14.39V73.68Zm-1.48,31.47H31.15L42.06,93.34l7.08,7.47L62.63,86.62Z"/><circle class="cls-2" cx="36.37" cy="80.86" r="3.82"/></g></g></g></svg>