<svg xmlns="http://www.w3.org/2000/svg" viewBox="0 0 105.58 132.69"><defs><style>.cls-1{isolation:isolate;}.cls-2{fill:#abadb9;}.cls-3{fill:#f9a557;}.cls-4{fill:#e6e7e8;}.cls-5{fill:#231f20;opacity:0.15;mix-blend-mode:multiply;}.cls-6{fill:#fbb675;}.cls-7{fill:#fff;}.cls-8{fill:none;stroke:#fff;stroke-miterlimit:10;stroke-width:0.66px;}</style></defs><title>ICON_eps</title><g class="cls-1"><g id="Layer_2" data-name="Layer 2"><g id="ÿ__1" data-name="ÿ‡_1"><path class="cls-2" d="M76.12,2.15H8a8,8,0,0,0-8,8V124.68a8,8,0,0,0,8,8H97.62a8,8,0,0,0,8-8V31.79Z"/><path class="cls-3" d="M105.58,49.55V29.46L76.12,0H8A8,8,0,0,0,0,8V49.55Z"/><path class="cls-4" d="M0,49.55v72.21a8,8,0,0,0,8,8H97.63a8,8,0,0,0,8-8V49.55Z"/><path class="cls-5" d="M76.16,0,74.63,28a5.23,5.23,0,0,0,5.22,5.22l25.71-3.8v0Z"/><path class="cls-6" d="M76.16,0l0,24.23a5.23,5.23,0,0,0,5.22,5.22h24.23v0Z"/><path class="cls-7" d="M22.54,25.78H16.81v4.14h6.64v1.75H14.63V18.58h8.76v1.75H16.81V24h5.72Z"/><path class="cls-7" d="M27.3,26.71v5H25.11V18.58h5.11a4.85,4.85,0,0,1,3.39,1.12,3.8,3.8,0,0,1,1.23,2.94,3.79,3.79,0,0,1-1.23,3,4.88,4.88,0,0,1-3.39,1.11Zm0-1.75h2.93a2.4,2.4,0,0,0,1.82-.65,2.3,2.3,0,0,0,.61-1.64,2.21,2.21,0,0,0-2.44-2.33H27.3Z"/><path class="cls-7" d="M43.91,28.29A1.67,1.67,0,0,0,43.3,27,5.67,5.67,0,0,0,41.16,26a9.06,9.06,0,0,1-3.37-1.52A3,3,0,0,1,36.6,22a3.17,3.17,0,0,1,1.31-2.61,5.31,5.31,0,0,1,3.37-1,5,5,0,0,1,3.47,1.16A3.48,3.48,0,0,1,46,22.35l0,.05H43.9a2.11,2.11,0,0,0-.68-1.63,2.79,2.79,0,0,0-1.95-.62,2.86,2.86,0,0,0-1.84.52A1.65,1.65,0,0,0,38.79,22a1.47,1.47,0,0,0,.7,1.24,7.74,7.74,0,0,0,2.31.93A7.68,7.68,0,0,1,45,25.74a3.28,3.28,0,0,1,1.1,2.54,3.07,3.07,0,0,1-1.31,2.6,5.65,5.65,0,0,1-3.44,1,6.08,6.08,0,0,1-3.6-1.09,3.35,3.35,0,0,1-1.5-3l0-.05h2.1a2,2,0,0,0,.83,1.78,3.62,3.62,0,0,0,2.15.59,3.18,3.18,0,0,0,1.89-.49A1.55,1.55,0,0,0,43.91,28.29Z"/><line class="cls-8" y1="49.55" x2="105.58" y2="49.55"/><path class="cls-7" d="M80.52,103.65A27.78,27.78,0,0,0,56.32,76.11V74.74H72.13a2.36,2.36,0,1,0,0-1.33H56.32V70.56H49.17v2.85H33.34a2.36,2.36,0,1,0,0,1.33H49.17v1.37A27.78,27.78,0,0,0,25,103.65H23v7h7.15v-7h-1.9a24.47,24.47,0,1,1,48.93,0H75.4v7h7.15v-7Zm-52.34,5H25v-3h3.17Zm23-36.14h3.17v3H51.16Zm29.41,36.14H77.39v-3h3.17Z"/><path class="cls-2" d="M80.52,102.47A27.78,27.78,0,0,0,56.32,74.92V73.55H72.13a2.36,2.36,0,1,0,0-1.33H56.32V69.37H49.17v2.85H33.34a2.36,2.36,0,1,0,0,1.33H49.17v1.37A27.78,27.78,0,0,0,25,102.47H23v7h7.15v-7h-1.9a24.47,24.47,0,1,1,48.93,0H75.4v7h7.15v-7Zm-52.34,5H25v-3h3.17Zm23-36.14h3.17v3H51.16ZM80.56,107.5H77.39v-3h3.17Z"/></g></g></g></svg>