<svg xmlns="http://www.w3.org/2000/svg" viewBox="0 0 105.58 132.69"><defs><style>.cls-1{isolation:isolate;}.cls-2{fill:#abadb9;}.cls-3{fill:#f38594;}.cls-4{fill:#e6e7e8;}.cls-5{fill:#231f20;opacity:0.15;mix-blend-mode:multiply;}.cls-6{fill:#f59ca5;}.cls-7{fill:#fff;}.cls-8{fill:none;stroke:#fff;stroke-miterlimit:10;stroke-width:0.66px;}</style></defs><title>ICON_html</title><g class="cls-1"><g id="Layer_2" data-name="Layer 2"><g id="ÿ__1" data-name="ÿ‡_1"><path class="cls-2" d="M76.12,2.15H8a8,8,0,0,0-8,8V124.68a8,8,0,0,0,8,8H97.62a8,8,0,0,0,8-8V31.79Z"/><path class="cls-3" d="M76.12,0H8A8,8,0,0,0,0,8v113.8a8,8,0,0,0,8,8H97.62a8,8,0,0,0,8-8V29.46Z"/><path class="cls-4" d="M0,49.55v72.21a8,8,0,0,0,8,8H97.62a8,8,0,0,0,8-8V49.55Z"/><path class="cls-5" d="M76.16,0,74.63,28a5.23,5.23,0,0,0,5.22,5.22l25.71-3.8v0Z"/><path class="cls-6" d="M76.16,0l0,24.23a5.23,5.23,0,0,0,5.22,5.22h24.23v0Z"/><path class="cls-7" d="M24.85,31.67H22.67V26.08H16.81v5.58H14.63V18.58h2.19v5.75h5.86V18.58h2.18Z"/><path class="cls-7" d="M36.47,20.33h-4V31.67H30.34V20.33h-4V18.58H36.47Z"/><path class="cls-7" d="M40.83,18.58,44.6,28.65h.05l3.78-10.07h2.83V31.67H49.07V27.21l.21-5.67h-.05L45.35,31.67H43.89L40,21.55H40l.22,5.64v4.46H38V18.58Z"/><path class="cls-7" d="M56.12,29.92h6v1.75h-8.2V18.58h2.18Z"/><line class="cls-8" y1="49.55" x2="105.58" y2="49.55"/><polygon class="cls-7" points="44.73 108.1 48.59 108.1 61.28 74.74 57.38 74.74 44.73 108.1"/><polygon class="cls-7" points="26.39 93.31 41.92 102.03 41.92 98.12 30.8 91.85 41.92 85.65 41.92 81.73 26.39 90.45 26.39 93.31"/><polygon class="cls-7" points="63.66 81.73 63.66 85.65 74.78 91.85 63.66 98.12 63.66 102.03 79.19 93.31 79.19 90.45 63.66 81.73"/><polygon class="cls-2" points="44.73 106.91 48.59 106.91 61.28 73.55 57.38 73.55 44.73 106.91"/><polygon class="cls-2" points="26.39 92.12 41.92 100.84 41.92 96.93 30.8 90.67 41.92 84.46 41.92 80.54 26.39 89.26 26.39 92.12"/><polygon class="cls-2" points="63.66 80.54 63.66 84.46 74.78 90.67 63.66 96.93 63.66 100.84 79.19 92.12 79.19 89.26 63.66 80.54"/></g></g></g></svg>