<svg xmlns="http://www.w3.org/2000/svg" viewBox="0 0 105.63 132.75"><defs><style>.cls-1{isolation:isolate;}.cls-2{fill:#abadb9;}.cls-3{fill:#f38594;}.cls-4{fill:#e6e7e8;}.cls-5{fill:#231f20;opacity:0.15;mix-blend-mode:multiply;}.cls-6{fill:#f59ca5;}.cls-7{fill:#fff;}.cls-8{fill:none;stroke:#fff;stroke-miterlimit:10;stroke-width:0.66px;}</style></defs><title>ICON_mp3</title><g class="cls-1"><g id="Layer_2" data-name="Layer 2"><g id="ÿ__1" data-name="ÿ‡_1"><path class="cls-2" d="M76.15,2.15H8a8,8,0,0,0-8,8V124.74a8,8,0,0,0,8,8h89.7a8,8,0,0,0,8-8V31.81Z"/><path class="cls-3" d="M105.63,49.57V29.47L76.15,0H8A8,8,0,0,0,0,8V49.57Z"/><path class="cls-4" d="M0,49.57v72.25a8,8,0,0,0,8,8h89.7a8,8,0,0,0,8-8V49.57Z"/><path class="cls-5" d="M76.19,0,74.67,28a5.23,5.23,0,0,0,5.22,5.22l25.72-3.8v0Z"/><path class="cls-6" d="M76.19,0l0,24.24a5.24,5.24,0,0,0,5.22,5.22h24.24v0Z"/><path class="cls-7" d="M17.47,18.59l3.77,10.07h.05l3.78-10.07H27.9V31.68H25.71V27.22l.22-5.68h-.05L22,31.68H20.53L16.66,21.56h-.05l.21,5.65v4.46H14.64V18.59Z"/><path class="cls-7" d="M32.77,26.72v5H30.58V18.59H35.7a4.85,4.85,0,0,1,3.39,1.12,3.79,3.79,0,0,1,1.23,2.94,3.79,3.79,0,0,1-1.23,3,4.88,4.88,0,0,1-3.39,1.11Zm0-1.75H35.7a2.4,2.4,0,0,0,1.83-.65,2.3,2.3,0,0,0,.61-1.65,2.21,2.21,0,0,0-2.44-2.33H32.77Z"/><path class="cls-7" d="M44.37,24.15h1.52a2,2,0,0,0,1.53-.53,2.16,2.16,0,0,0,.47-1.49,2,2,0,0,0-.5-1.46,2,2,0,0,0-1.48-.52,2.08,2.08,0,0,0-1.45.51A1.72,1.72,0,0,0,43.89,22H41.78l0-.06a3,3,0,0,1,1.12-2.52,4.38,4.38,0,0,1,3-1,4.56,4.56,0,0,1,3.06,1,3.42,3.42,0,0,1,1.14,2.76,2.92,2.92,0,0,1-.51,1.62A3.36,3.36,0,0,1,48.1,25a3.12,3.12,0,0,1,1.64,1.21A3.3,3.3,0,0,1,50.27,28,3.49,3.49,0,0,1,49,30.84a5.35,5.35,0,0,1-6.21.06,3.07,3.07,0,0,1-1.18-2.68l0-.05h2.1a1.81,1.81,0,0,0,.59,1.4,2.2,2.2,0,0,0,1.55.54,2.24,2.24,0,0,0,1.6-.55A2,2,0,0,0,48.09,28a2.19,2.19,0,0,0-.54-1.63,2.29,2.29,0,0,0-1.66-.53H44.37Z"/><line class="cls-8" y1="49.57" x2="105.63" y2="49.57"/><path class="cls-7" d="M70.2,69.4l-28.65,6V99.18a8.36,8.36,0,0,0-5.79-.11c-3.87,1.27-6.2,4.77-5.2,7.81s4.95,4.48,8.82,3.21c3.33-1.09,5.51-3.83,5.42-6.51h.06V80.11l22-4.61V95.68a8.37,8.37,0,0,0-5.74-.09c-3.87,1.27-6.2,4.77-5.2,7.81s4.95,4.48,8.82,3.21c3.23-1.06,5.37-3.67,5.42-6.27h0Z"/><path class="cls-2" d="M70.2,68.21l-28.65,6V98a8.36,8.36,0,0,0-5.79-.11c-3.87,1.27-6.2,4.77-5.2,7.81s4.95,4.48,8.82,3.21c3.33-1.09,5.51-3.83,5.42-6.51h.06V78.93l22-4.61V94.49a8.37,8.37,0,0,0-5.74-.09c-3.87,1.27-6.2,4.77-5.2,7.81s4.95,4.48,8.82,3.21c3.23-1.06,5.37-3.67,5.42-6.27h0Z"/></g></g></g></svg>